<?xml version="1.0" encoding="utf-8"?>
<!-- Generator: Adobe Illustrator 19.2.1, SVG Export Plug-In . SVG Version: 6.00 Build 0)  -->
<svg version="1.1" id="layer" xmlns="http://www.w3.org/2000/svg" xmlns:xlink="http://www.w3.org/1999/xlink" x="0px" y="0px"
	 viewBox="0 0 652 652" style="enable-background:new 0 0 652 652;" xml:space="preserve">
<style type="text/css">
	.st0{fill:#00529B;}
	.st1{fill:none;stroke:#00529B;stroke-width:3.4898;}
	.st2{fill-rule:evenodd;clip-rule:evenodd;fill:#00529B;}
</style>
<g>
	<path class="st0" d="M107.6,388.8c-0.3,0.9,0,1.6,0.7,1.6c0.3,0,0.6,0,0.8-0.1l-1,3c-0.6,0.3-1.5,0.6-2.4,0.6c-2,0-3.5-0.8-2.9-3
		h-0.1c-1.9,2.3-4.1,3.4-6.8,3.4c-3.7,0-5.3-2-3.9-6.4c1.6-5.1,4.2-6.2,7.6-7.2l3.9-1c1.8-0.5,3-0.9,3.6-2.9
		c0.6-2.1,0.4-3.4-2.1-3.4c-3.1,0-4.2,2.2-4.9,4.4h-4.3c1.5-4.8,4.4-7.5,10.4-7.5c4,0,6.8,1.6,5.5,5.6L107.6,388.8z M105.5,381.5
		c-1.5,0.9-4.2,1.5-5.7,2.1c-1.5,0.6-2.5,2-3.1,3.7c-0.6,1.9-0.2,3.4,1.8,3.4c2.8,0,4.8-2.1,5.8-5.4L105.5,381.5z"/>
	<path class="st0" d="M139,390.1L139,390.1c-2.3,2.8-4.5,4.1-8,4.1c-6.6,0-7.4-4.9-4-15.8c3.4-10.8,8.1-15.8,15.1-15.8
		c7.6,0,7,6,6.1,8.8l-0.2,0.6h-4.6l0.2-0.7c0.7-2.3,0.6-4.9-2.7-4.9c-3.4,0-6,2.3-9,12c-3.1,9.8-2.3,12.2,1,12.2
		c3.7,0,5.9-2.6,8-9.3h-5.1l1.1-3.7h9.7l-5.1,16h-3.7L139,390.1z"/>
	<path class="st0" d="M153.4,370.7h4.6l-1.1,3.6h0.1c1.8-2.5,4.1-4.2,6.6-4.2c0.5,0,0.8,0.1,1,0.2l-1.5,4.7
		c-0.3-0.1-1.1-0.3-1.8-0.3c-2.1,0-4.9,0.9-6.2,5.2l-4.3,13.7h-4.6L153.4,370.7z"/>
	<path class="st0" d="M167.8,370.7h4.6l-7.3,22.9h-4.6L167.8,370.7z M170.3,362.9h4.6l-1.4,4.6h-4.6L170.3,362.9z"/>
	<path class="st0" d="M178.1,370.7h4.3l-0.8,2.7h0.1c1.8-2,4.3-3.3,6.5-3.3c3.3,0,4.1,1.6,4.2,3.5c2-2.2,4.1-3.5,6.9-3.5
		c3.2,0,5.1,1.7,3.7,6.1l-5.5,17.4h-4.6l5-15.7c1-3,0.4-4.1-1.4-4.1c-1.9,0-4.1,1.5-5.1,4.5l-4.9,15.3h-4.6l5-15.7
		c1-3,0.4-4.1-1.5-4.1c-1.8,0-4.1,1.5-5,4.5l-4.9,15.3h-4.6L178.1,370.7z"/>
	<path class="st0" d="M219.4,388.8c-0.3,0.9,0,1.6,0.7,1.6c0.3,0,0.6,0,0.8-0.1l-1,3c-0.6,0.3-1.5,0.6-2.4,0.6c-2,0-3.5-0.8-2.9-3
		h-0.1c-1.9,2.3-4.1,3.4-6.8,3.4c-3.7,0-5.3-2-3.9-6.4c1.6-5.1,4.2-6.2,7.6-7.2l3.9-1c1.8-0.5,3-0.9,3.6-2.9
		c0.6-2.1,0.4-3.4-2.1-3.4c-3.1,0-4.2,2.2-4.9,4.4h-4.3c1.5-4.8,4.4-7.5,10.4-7.5c4,0,6.8,1.6,5.5,5.6L219.4,388.8z M217.4,381.5
		c-1.5,0.9-4.2,1.5-5.7,2.1c-1.5,0.6-2.5,2-3.1,3.7c-0.6,1.9-0.2,3.4,1.8,3.4c2.8,0,4.8-2.1,5.8-5.4L217.4,381.5z"/>
	<polygon class="st0" points="233.2,363.3 237.8,363.3 228.2,393.6 223.6,393.6 	"/>
	<path class="st0" d="M246.2,390.8L246.2,390.8c-1.1,1.5-2.9,3.4-6.2,3.4c-5.4,0-6.1-4.5-3.6-12.3c3.2-10.2,7.3-11.7,10.8-11.7
		c2.5,0,4,1.2,4.2,3.3h0.1l3.2-10.2h4.6l-9.6,30.4h-4.3L246.2,390.8z M247.4,373.8c-2.6,0-4.3,2.1-6.2,8.3c-1.7,5.2-2,8.5,1.2,8.5
		c3.1,0,4.9-3.2,6.5-8.1C250.6,376.9,251,373.8,247.4,373.8"/>
	<path class="st0" d="M262.3,370.7h4.6l-7.2,22.9h-4.6L262.3,370.7z M264.8,362.9h4.6l-1.4,4.6h-4.6L264.8,362.9z"/>
	<path class="st0" d="M292.6,390.1L292.6,390.1c-2.3,2.8-4.5,4.1-8,4.1c-6.6,0-7.4-4.9-4-15.8c3.4-10.8,8.1-15.8,15.1-15.8
		c7.6,0,7,6,6.1,8.8l-0.2,0.6h-4.6l0.2-0.7c0.7-2.3,0.6-4.9-2.7-4.9c-3.4,0-6,2.3-9,12c-3.1,9.8-2.3,12.2,1,12.2
		c3.7,0,5.9-2.6,8-9.3h-5.1l1.1-3.7h9.7l-5.1,16h-3.7L292.6,390.1z"/>
	<path class="st0" d="M307,370.7h4.6l-1.1,3.6h0.1c1.8-2.5,4.1-4.2,6.6-4.2c0.5,0,0.8,0.1,1,0.2l-1.5,4.7c-0.3-0.1-1.1-0.3-1.8-0.3
		c-2.1,0-4.9,0.9-6.2,5.2l-4.3,13.7h-4.6L307,370.7z"/>
	<path class="st0" d="M329,370.1c6.7,0,7,4.9,4.7,12c-2.2,7.1-6,12-12.4,12c-6.3,0-6.9-4.9-4.7-12C319,375.1,322.4,370.1,329,370.1
		 M322.5,390.8c3.4,0,4.8-2.8,6.7-8.6c1.6-5.1,2.1-8.6-1.2-8.6c-3.3,0-5,3.6-6.6,8.6C319.4,388,319.1,390.8,322.5,390.8"/>
	<path class="st0" d="M347,390.9h-0.1c-1.8,2-4.3,3.3-6.9,3.3c-3.4,0-5.2-1.6-3.3-7.5l5.1-16h4.6l-5.2,16.4c-0.8,2.6,0.1,3.4,2,3.4
		c2,0,4.2-1.3,4.9-3.8l5.1-16h4.6l-7.3,22.9h-4.3L347,390.9z"/>
	<path class="st0" d="M362.9,370.7h4.3l-0.9,2.8h0.1c1.6-2,3.7-3.4,6.2-3.4c5.2,0,6,4.5,3.5,12.3c-3,9.6-7.6,11.7-10.8,11.7
		c-2.5,0-4-1.2-4.2-3.3h-0.1l-3.2,10.2h-4.6L362.9,370.7z M364.9,390.5c2.6,0,4.5-2,6.5-8.3c1.7-5.2,2-8.5-1.2-8.5
		c-3.1,0-4.9,3.2-6.5,8.1C362,387.4,361.7,390.5,364.9,390.5"/>
	<path class="st0" d="M406.1,385.3c-2.1,5.5-5,8.9-10.7,8.9c-6.6,0-6.9-4.9-4.7-12c2.3-7.1,5.7-12,12.3-12c6.9-0.1,6.2,5.4,5.3,8.2
		h-4.6c0.7-2.1,1-4.9-1.8-4.8c-3.3,0-5,3.6-6.6,8.6c-1.6,5.1-2.1,8.6,1.2,8.6c2.5,0,4.1-2.1,5.3-5.5H406.1z"/>
	<path class="st0" d="M422.7,370.1c6.7,0,7,4.9,4.7,12c-2.2,7.1-6,12-12.4,12c-6.3,0-6.9-4.9-4.7-12
		C412.7,375.1,416.1,370.1,422.7,370.1 M416.1,390.8c3.4,0,4.8-2.8,6.7-8.6c1.6-5.1,2.1-8.6-1.2-8.6c-3.3,0-5,3.6-6.6,8.6
		C413.1,388,412.8,390.8,416.1,390.8"/>
	<path class="st0" d="M435.6,370.7h4.3l-0.8,2.7h0.1c1.8-2,4.3-3.3,6.5-3.3c3.3,0,4.1,1.6,4.2,3.5c2-2.2,4.1-3.5,6.9-3.5
		c3.2,0,5.1,1.7,3.7,6.1l-5.5,17.4h-4.6l5-15.7c1-3,0.4-4.1-1.4-4.1c-1.9,0-4.1,1.5-5.1,4.5l-4.9,15.3h-4.6l5-15.7
		c1-3,0.4-4.1-1.5-4.1c-1.8,0-4.1,1.5-5,4.5l-4.9,15.3h-4.6L435.6,370.7z"/>
	<path class="st0" d="M467.6,370.7h4.3l-0.9,2.8h0.1c1.6-2,3.7-3.4,6.2-3.4c5.2,0,5.9,4.5,3.5,12.3c-3.1,9.6-7.7,11.7-10.8,11.7
		c-2.5,0-4-1.2-4.2-3.3h-0.1l-3.2,10.2H458L467.6,370.7z M469.6,390.5c2.6,0,4.5-2,6.5-8.3c1.7-5.2,2-8.5-1.2-8.5
		c-3.1,0-4.9,3.2-6.5,8.1C466.7,387.4,466.4,390.5,469.6,390.5"/>
	<path class="st0" d="M498.2,388.8c-0.3,0.9,0,1.6,0.7,1.6c0.3,0,0.6,0,0.8-0.1l-1,3c-0.6,0.3-1.5,0.6-2.4,0.6c-2,0-3.5-0.8-2.9-3
		h-0.1c-1.9,2.3-4.1,3.4-6.8,3.4c-3.7,0-5.3-2-3.9-6.4c1.6-5.1,4.2-6.2,7.6-7.2l3.9-1c1.8-0.5,3-0.9,3.6-2.9
		c0.6-2.1,0.4-3.4-2.1-3.4c-3.1,0-4.2,2.2-4.9,4.4h-4.3c1.5-4.8,4.4-7.5,10.4-7.5c4,0,6.8,1.6,5.5,5.6L498.2,388.8z M496.1,381.5
		c-1.5,0.9-4.2,1.5-5.7,2.1c-1.5,0.6-2.5,2-3.1,3.7c-0.6,1.9-0.2,3.4,1.8,3.4c2.8,0,4.8-2.1,5.8-5.4L496.1,381.5z"/>
	<path class="st0" d="M509.4,370.7h4.3l-0.8,2.7h0.1c1.8-2,4.3-3.3,6.9-3.3c3.5,0,5.2,1.6,3.7,6.2l-5.5,17.3h-4.6l5-15.7
		c1-3,0.4-4.1-1.9-4.1c-1.9,0-4.1,1.5-5.1,4.5l-4.9,15.3h-4.6L509.4,370.7z"/>
	<path class="st0" d="M533.7,370.7l-1.5,17.2h0.1l9.1-17.2h4.8l-13.8,23.7c-3.8,6.2-5.5,7.1-10.2,7c-0.6,0-1.2-0.1-1.8-0.2l1.1-3.7
		c0.5,0.1,0.9,0.2,1.4,0.2c1.6,0,2.7-0.3,3.7-1.8l1.2-1.9l0.9-23.4H533.7z"/>
	<path class="st1" d="M556,376.6h41.9 M551.5,389.5h42.2"/>
	<polygon class="st0" points="123.5,350.3 137.6,308.9 168.3,308.9 175,289.3 144.3,289.3 150.2,271.9 183.5,271.9 190.2,252.4 
		132.2,252.4 98.8,350.3 	"/>
	<path class="st2" d="M186.3,350.3l24.9-73.1h-22.3L164,350.3H186.3z M213.6,270l6-17.6h-22.3l-6,17.6H213.6z"/>
	<path class="st0" d="M225.7,277.2l-24.9,73.1H223l17.8-52.2c1.3-3.8,4.1-5.9,8.1-6c4.3-0.3,4.7,2.6,3.8,6l-17.8,52.2h22.3
		l20.4-59.9c3.4-9.9-4.2-15.3-14.7-15.3c-7,0-15.4,5.6-19.4,11.2h-0.3l3.1-9.1H225.7z"/>
	<path class="st0" d="M295.8,277.2l-24.9,73.1h22.3L311,298c1.3-3.8,4.1-5.9,8.1-6c4.3-0.3,4.7,2.6,3.8,6l-17.8,52.2h22.3l20.4-59.9
		c3.4-9.9-4.2-15.3-14.7-15.3c-7,0-15.4,5.6-19.4,11.2h-0.3l3.1-9.1H295.8z"/>
	<polygon class="st0" points="363.4,350.3 396.8,252.4 374.5,252.4 341.1,350.3 	"/>
	<path class="st2" d="M399.5,350.3l24.9-73.1h-22.3l-24.9,73.1H399.5z M426.9,270l6-17.6h-22.3l-6,17.6H426.9z"/>
	<path class="st0" d="M439.6,277.2l-24.9,73.1H437l17.8-52.2c1.3-3.8,4.1-5.9,8.1-6c4.3-0.3,4.7,2.6,3.8,6l-17.8,52.2h22.3
		l20.4-59.9c3.4-9.9-4.2-15.3-14.7-15.3c-7,0-15.4,5.6-19.4,11.2h-0.3l3.1-9.1H439.6z"/>
	<path class="st2" d="M520.2,301.9l1.7-4.8c1.7-5.1,4.9-9.8,11.2-9.8c5.7,0,5.9,4.8,5,7.4l-2.5,7.2H520.2z M553.2,315.7l7.1-20.9
		c5.4-15.8-7.2-21.3-22.8-21.1c-17.3,0.1-32.1,6.3-38.5,25.1l-10.1,29.8c-5.7,16.7,6.2,22.8,22.3,22.7c19.4-0.3,33.3-8.9,38.6-27.7
		h-22.1c-2.5,6.1-4,13.1-12.2,12.7c-4.8-0.3-5.6-3.7-4.2-7.7l4.4-12.8H553.2z"/>
	<path class="st0" d="M623.6,297.4c6.4-16.2-4.1-23.8-20.4-23.8c-15.6,0-31.3,6.8-36.7,22.6c-1.8,5.4-1.5,9.7,0.9,13.7
		c4.5,7.4,15.9,10.6,23.3,15c1.4,1.3,1.8,3.4,1,5.6c-1.6,4.7-5.6,6.9-10.4,6.9c-6.7,0-6.3-5.9-4.2-11h-21.3
		c-6.8,17.6,3.1,24.7,20.8,24.7c16.4,0,32.1-6.9,37.6-23.2c5.9-17.4-8.4-20.9-20.8-27c-2.8-1.6-5.7-3.5-4.3-7.4
		c1.5-4.3,5.2-6.1,9.5-6.1c7.2,0,5.1,5.1,4,10H623.6z"/>
	<polygon class="st0" points="25.4,277.4 114.8,277.4 108.9,294.1 40.3,294.1 	"/>
	<polygon class="st0" points="46.7,301.6 106.5,301.6 100.9,318.2 76.7,318.2 85.7,328.3 94.2,337.6 89.9,350.5 	"/>
</g>
</svg>
