<?xml version="1.0" encoding="utf-8"?>
<!-- Generator: Adobe Illustrator 24.0.3, SVG Export Plug-In . SVG Version: 6.00 Build 0)  -->
<svg version="1.1" id="Layer_1" xmlns="http://www.w3.org/2000/svg" xmlns:xlink="http://www.w3.org/1999/xlink" x="0px" y="0px"
	 width="3045.3px" height="589.5px" viewBox="0 0 3045.3 589.5" style="enable-background:new 0 0 3045.3 589.5;"
	 xml:space="preserve">
<style type="text/css">
	.st0{fill:url(#SVGID_1_);}
</style>
<g id="logo_x5F_rgb_x5F_logo_x5F_game-room_x5F_gradient_1_">
	
		<linearGradient id="SVGID_1_" gradientUnits="userSpaceOnUse" x1="-1090.6454" y1="374.3601" x2="1935.2939" y2="56.3211" gradientTransform="matrix(1 0 0 -1 1101.65 586.75)">
		<stop  offset="0" style="stop-color:#912DBB"/>
		<stop  offset="1" style="stop-color:#F82F59"/>
	</linearGradient>
	<path class="st0" d="M845.6,445.4c0,14.1-4.3,24.9-12.4,32.5c-8.7,7.6-18.9,11.4-31.4,11.4h-31.4c-26,0-48.7-4.3-68.2-13
		c-19.5-8.7-35.7-20.6-48.7-35.2s-22.7-30.8-29.2-49.2c-6.5-18.4-9.7-37.3-9.7-56.8c0-21.1,3.2-41.7,9.7-61.1
		c6.5-19.5,16.8-36.2,30.3-50.9c13.5-14.6,30.3-26,50.9-34.6c20-8.7,43.8-12.4,71.4-12.4h24.9c7,0,13.5,1.1,18.9,3.8
		s10.3,6,13.5,9.7c3.8,4.3,6.5,8.7,8.7,14.1c2.2,5.4,2.7,10.8,2.7,16.2s-1.1,11.4-2.7,16.2c-2.2,5.4-4.9,9.7-8.7,14.1
		c-3.8,3.8-8.1,7-13.5,9.7s-11.9,3.8-18.9,3.8h-31.4c-11.9,0-22.7,2.2-31.4,6c-8.7,3.8-16.2,9.2-22.7,15.1
		c-6,6.5-10.8,13.5-13.5,22.2c-2.7,8.1-4.3,16.8-4.3,25.4s1.1,17.3,3.8,25.4c2.2,8.1,6,15.7,11.4,21.6c5.4,6.5,11.9,11.4,19.5,15.1
		c8.1,3.8,17.3,6,28.1,6.5v-51.4c0-13.5,4.3-23.8,12.4-31.4c8.7-7.6,18.4-11.4,29.8-11.4s21.6,3.8,29.8,11.4
		c8.7,7.6,12.4,17.9,12.4,31.4L845.6,445.4L845.6,445.4z M1043.1,428.6h-92.5L937,462.7c-4.3,9.7-9.7,16.8-16.2,21.1
		c-7,4.9-14.1,7-21.1,7c-6,0-11.9-1.1-17.3-2.7c-5.4-2.2-10.3-4.9-15.1-8.1c-4.3-3.8-8.1-8.1-10.8-13s-3.8-10.8-3.8-16.8
		c0-7.6,1.1-13.5,3.2-17.3l106-232.1c3.8-7.6,8.1-14.1,13.5-18.9c5.4-4.9,14.6-7,26.5-7c11.4,0,20,2.2,25.4,7
		c6,4.9,10.3,11.4,13.5,18.9l96.3,231.5c2.2,4.3,3.2,9.7,3.2,17.3c0,6-1.1,11.4-3.8,16.2c-2.7,4.9-6,9.2-10.3,13
		c-4.3,3.8-9.2,6.5-15.1,8.7c-5.4,2.2-11.4,3.2-16.8,3.2c-18.9,0-31.9-9.2-38.4-28.1L1043.1,428.6z M978.1,360.5h41.7l-18.9-56.3
		L978.1,360.5z M1299.5,374c-11.4,0-22.2-6-31.4-18.4l-31.9-41.7v133.6c0,14.1-4.3,24.3-13,31.9c-8.7,7.6-18.4,11.4-29.8,11.4
		c-11.9,0-22.2-3.8-30.8-10.8c-8.7-7-13-17.9-13-32.5V220.4c0-7,1.1-13.5,3.8-19.5c2.7-6,6-10.8,9.7-14.6c4.3-3.8,9.2-7,14.6-8.7
		c5.4-2.2,11.4-3.2,17.3-3.2c7.6,0,15.1,1.6,23.3,5.4c7.6,3.8,14.6,9.2,20,16.2l61.1,79l61.7-79c5.4-7,12.4-12.4,20-16.2
		s15.1-5.4,22.7-5.4c6,0,11.9,1.1,17.3,3.2s10.3,4.9,14.6,8.7c4.3,3.8,7.6,8.7,10.3,14.6c2.7,6,3.8,12.4,3.8,19.5v227.2
		c0,14.1-4.3,24.9-13,32.5c-8.7,7-18.9,10.8-30.8,10.8c-11.4,0-21.6-3.8-29.8-10.8c-8.7-7-12.4-17.9-12.4-32.5V314l-31.4,41.7
		c-4.9,7-10.3,11.4-15.7,14.1C1310.8,372.4,1305.4,374,1299.5,374z M1522.9,489.2c-28.7,0-42.7-14.6-42.7-43.8V219.3
		c0-29.2,14.1-43.8,42.7-43.8h146.6c13.5,0,24.3,4.3,31.9,13s11.4,18.9,11.4,30.8c0,11.9-3.8,22.2-11.4,30.8
		c-7.6,8.7-18.4,13-31.9,13h-103.3v29.8h86c12.4,0,22.2,3.8,29.2,11.9c7,8.1,10.3,17.3,10.3,27.6c0,10.8-3.2,20-10.3,27.6
		c-7,8.1-16.8,11.9-29.2,11.9h-86v30.3h103.9c13.5,0,24.3,4.3,31.9,12.4c7.6,8.7,11.4,18.4,11.4,30.3c0,11.9-3.8,22.2-11.4,30.8
		c-7.6,8.7-18.4,13-31.9,13h-147.2V489.2z M1933,370.8c-1.6-2.2-2.7-5.4-4.3-9.7c-1.1-4.3-2.2-8.7-2.2-13.5c0-13,2.7-23.3,7.6-30.3
		c5.4-7,13.5-10.8,25.4-10.8h6.5c7.6,0,13.5-2.2,17.9-6.5c4.3-4.3,6.5-10.8,6.5-19.5c0-8.1-2.2-13.5-6.5-16.8s-11.4-4.9-20.6-4.9
		h-46.5v186.1c0,29.8-14.6,44.4-43.3,44.4c-29.2,0-43.8-14.6-43.8-43.8V219.3c0-29.2,14.1-43.8,41.7-43.8h93.6
		c18.4,0,34.1,2.7,47.6,8.1c13.5,5.4,24.3,12.4,33,21.6c8.7,8.7,15.1,18.9,18.9,30.3c4.3,11.4,6.5,23.3,6.5,35.2
		c0,21.1-4.9,39.5-15.1,54.1c-10.3,14.6-22.7,25.4-37.3,31.4l41.1,64.9c5.4,10.3,8.7,18.9,8.7,26.5c0,6.5-1.1,11.9-3.8,17.3
		c-2.7,5.4-6.5,9.7-10.8,13.5s-9.7,6.5-15.1,8.7c-5.4,2.2-11.4,3.2-16.8,3.2c-7,0-13.5-1.6-20-5.4c-6.5-3.8-11.9-9.2-16.2-16.8
		L1933,370.8z M2079.1,332.3c0-22.2,4.3-42.7,12.4-62.2s19.5-36.2,34.1-50.9c14.6-14.6,31.4-26,50.9-34.1
		c19.5-8.1,40-12.4,62.2-12.4c22.2,0,43.3,4.3,62.8,12.4c19.5,8.1,36.2,19.5,50.9,34.1c14.6,14.6,26,31.4,34.1,50.9
		c8.7,19.5,12.4,40,12.4,62.2c0,22.2-4.3,42.7-12.4,62.2c-8.7,19.5-20,36.2-34.1,50.9c-14.6,14.6-31.4,26-50.9,34.1
		c-19.5,8.1-40,12.4-62.8,12.4c-22.2,0-42.7-4.3-62.2-12.4c-19.5-8.1-36.2-19.5-50.9-34.1c-14.6-14.6-26-31.4-34.1-50.9
		C2083.4,375.6,2079.1,355.1,2079.1,332.3z M2166.7,334c0,10.3,2.2,19.5,6,28.1c3.8,8.7,9.2,16.2,15.7,22.7
		c6.5,6.5,14.1,11.9,22.7,15.1c8.7,3.8,18.4,5.4,28.1,5.4c10.3,0,19.5-1.6,28.1-5.4c8.7-3.8,16.2-8.7,23.3-15.1
		c6.5-6.5,11.9-14.1,15.7-22.7s6-18.4,6-28.1c0-10.3-2.2-19.5-6-28.7c-3.8-8.7-9.2-16.8-15.7-23.3c-6.5-6.5-14.6-11.9-23.3-15.7
		c-8.7-3.8-18.4-6-28.1-6c-10.3,0-19.5,2.2-28.1,6c-8.7,3.8-16.2,9.2-22.7,15.7c-6.5,6.5-11.9,14.1-15.7,23.3
		C2168.9,314.5,2166.7,323.7,2166.7,334z M2405.8,332.3c0-22.2,4.3-42.7,12.4-62.2s19.5-36.2,34.1-50.9c14.6-14.6,31.4-26,50.9-34.1
		c19.5-8.1,40-12.4,62.2-12.4s43.3,4.3,62.8,12.4c19.5,8.1,36.2,19.5,50.9,34.1c14.6,14.6,26,31.4,34.1,50.9
		c8.7,19.5,12.4,40,12.4,62.2c0,22.2-4.3,42.7-12.4,62.2c-8.7,19.5-20,36.2-34.1,50.9c-14.6,14.6-31.4,26-50.9,34.1
		c-19.5,8.1-40,12.4-62.8,12.4c-22.2,0-42.7-4.3-62.2-12.4c-19.5-8.1-36.2-19.5-50.9-34.1c-14.6-14.6-26-31.4-34.1-50.9
		C2410.2,375.6,2405.8,355.1,2405.8,332.3z M2493.5,334c0,10.3,2.2,19.5,6,28.1c3.8,8.7,9.2,16.2,15.7,22.7
		c6.5,6.5,14.1,11.9,22.7,15.1c8.7,3.8,18.4,5.4,28.1,5.4c10.3,0,19.5-1.6,28.1-5.4c8.7-3.8,16.2-8.7,23.3-15.1
		c6.5-6.5,11.9-14.1,15.7-22.7c3.8-8.7,6-18.4,6-28.1c0-10.3-2.2-19.5-6-28.7c-3.8-8.7-9.2-16.8-15.7-23.3
		c-6.5-6.5-14.6-11.9-23.3-15.7c-8.7-3.8-18.4-6-28.1-6c-10.3,0-19.5,2.2-28.1,6c-8.7,3.8-16.2,9.2-22.7,15.7
		c-6.5,6.5-11.9,14.1-15.7,23.3C2495.1,314.5,2493.5,323.7,2493.5,334z M2894.9,374c-11.4,0-22.2-6-31.4-18.4l-31.9-41.7v133.6
		c0,14.1-4.3,24.3-13,31.9c-8.7,7.6-18.4,11.4-29.8,11.4c-11.9,0-22.2-3.8-30.8-10.8c-8.7-7-13-17.9-13-32.5V220.4
		c0-7,1.1-13.5,3.8-19.5c2.7-6,6-10.8,9.7-14.6c4.3-3.8,9.2-7,14.6-8.7c5.4-2.2,11.4-3.2,17.3-3.2c7.6,0,15.1,1.6,23.3,5.4
		c7.6,3.8,14.6,9.2,20,16.2l61.1,79l61.7-79c5.4-7,12.4-12.4,20-16.2c7.6-3.8,15.1-5.4,22.7-5.4c6,0,11.9,1.1,17.3,3.2
		c5.4,2.2,10.3,4.9,14.6,8.7c4.3,3.8,7.6,8.7,10.3,14.6c2.7,6,3.8,12.4,3.8,19.5v227.2c0,14.1-4.3,24.9-13,32.5
		c-8.7,7-18.9,10.8-30.8,10.8c-11.4,0-21.6-3.8-29.8-10.8c-8.7-7-12.4-17.9-12.4-32.5V314l-31.4,41.7c-4.9,7-10.3,11.4-15.7,14.1
		C2906.8,372.4,2900.9,374,2894.9,374z M370,98.1l37.3-72c2.7-5.4,2.7-11.9-0.5-17.3c-3.2-5.4-8.7-8.7-15.1-8.7H232.1
		c-16.2,0-30.3,11.4-33.5,27.1l-12.4,55.2C76.3,114.3,0,215.5,0,330.7C0,400,27,464.9,75.7,513.6s113.6,75.7,182.9,75.7
		s134.2-27.1,182.9-75.7s75.7-113.6,75.7-182.9C517.2,231.7,459.9,141.4,370,98.1z M258.6,573.1c-133.1,0-240.7-108.2-240.7-240.7
		c0-103.9,67.1-195.8,164.5-228.3l-46,207.7c-1.6,6.5,0.5,13.5,5.4,18.4s11.9,6.5,18.4,4.3l107.1-31.9l-70.9,178
		c-2.2,6,0,13,5.4,16.2c2.2,1.6,4.9,2.2,7,2.2c3.8,0,7-1.6,9.7-4.3l42.7-48.1c3.2-3.8,2.7-9.2-0.5-12.4c-3.8-3.2-9.2-2.7-12.4,0.5
		l-26.5,29.8l63.3-159.1c2.2-5.4,1.1-11.9-2.7-16.2c-4.3-4.3-10.3-6-16.2-4.3l-111.4,33c-0.5,0-1.1,0-1.6-0.5
		c-0.5-0.5-0.5-1.1-0.5-1.6l62.8-282.9c1.6-7.6,8.7-13.5,16.8-13.5h159.6l-98.5,187.7c-3.2,6-2.7,13,1.1,18.4
		c3.8,5.4,10.3,8.7,17.3,7.6l130.9-16.2l-8.7,9.7c-0.5,0.5-0.5,0.5-1.1,1.1L271.6,408.1c-3.2,3.8-2.7,9.2,0.5,12.4
		c3.8,3.2,9.2,2.7,12.4-0.5l153.1-171.5c12.4,26,18.9,55.2,18.9,84.4c0,109.3-88.7,198-198,198s-198-88.7-198-198
		c0-66.5,33-128.2,88.7-165c3.8-2.7,5.4-8.1,2.7-12.4c-2.7-4.3-8.1-5.4-12.4-2.7c-60.1,40-96.3,107.1-96.3,179.6
		c0,119,96.8,215.9,215.9,215.9S475,451.4,475,332.3c0-34.1-8.1-68.2-23.8-98.5l8.1-9.2c4.3-4.9,5.4-11.9,2.2-17.9
		c-3.2-6-9.2-9.2-16.2-8.1l-15.7,2.2c-16.2-21.1-35.7-38.4-57.9-51.9c-4.3-2.7-9.7-1.1-11.9,2.7c-2.7,4.3-1.1,9.7,2.7,11.9
		c17.9,10.8,33.5,24.3,46.5,40L309.5,216c0,0,0,0-0.5,0c0,0,0,0,0-0.5l52.5-100.6c83.9,40,138,124.4,138,218
		C499.3,464.9,391.1,573.1,258.6,573.1z"/>
</g>
</svg>
