<?xml version="1.0" encoding="UTF-8"?><svg id="a" xmlns="http://www.w3.org/2000/svg" width="775.26" height="202.55" viewBox="0 0 775.26 202.55"><path d="M113.7,159.43c-.17,0-15.5,29.83-53.17,28.29-39.08-.42-54-37-54-37,0,0-.04,51.62-.04,51.83,0,0,768.76-.06,768.76-.06,0,0,.01-42.5,.01-43.05-.25,0-661.57-.02-661.57-.02Z" style="fill:#0064ae;"/><g><path d="M8.48,36.76c-2.64-.03-2.62-2.77,.03-2.77l108.17,.02c2.61-.03,2.63,2.75,0,2.75v10.04c2.48,0,2.46,3.2,0,3.21H8.51c-2.64,0-2.66-3.2,0-3.21v-9.9h0l-.03-.13Z" style="fill:#ffd300; fill-rule:evenodd;"/><path d="M116.68,50.5H8.51c-1.63,0-2.48-1.06-2.48-2.1,0-.93,.68-1.87,1.99-2.07v-9.1c-1.32-.18-2.01-1.03-2-1.87,0-.93,.86-1.88,2.49-1.88l108.17,.02c1.04,.02,1.84,.37,2.24,1.04,.3,.51,.3,1.12,0,1.63-.32,.57-.95,.93-1.75,1.04v9.11c1.21,.2,1.85,1.13,1.85,2.05,0,1.05-.8,2.11-2.35,2.12ZM8.51,34.49c-1.02,0-1.49,.46-1.49,.88,0,.42,.46,.88,1.47,.89h.4l.13,.63v10.4h-.49c-1.03,0-1.5,.56-1.49,1.1,0,.54,.46,1.09,1.48,1.09H116.68c.94,0,1.35-.55,1.35-1.11,0-.54-.42-1.09-1.34-1.09h-.51v-11.04h.5c.66,0,1.18-.21,1.38-.57,.12-.2,.11-.43,0-.63-.21-.35-.74-.57-1.37-.55l-108.18-.02Z" style="fill:#231f20;"/></g><rect x="8.02" y="36.75" width="1" height="10.02" transform="translate(-.04 0) rotate(-.06)" style="fill:#231f20;"/><path d="M117.28,121.34c-2.04,80.16-106.59,80.41-110.54-.12l.29-68,110.34-.23-.09,68.35h0Z" style="fill:#0064ae; fill-rule:evenodd;"/><path d="M62.6,182c-25.94,0-54.48-18.94-56.27-60.76l.08-68.65h.5l111.16,.13-.29,68.64c-.47,18.64-6.56,34.29-17.6,45.27-9.84,9.79-23.02,15.24-37.11,15.37-.15,0-.31,0-.47,0ZM7.4,53.6l-.08,67.62c1.77,41.13,29.8,59.78,55.27,59.78,.15,0,.3,0,.46,0,35.88-.31,53-31.14,53.72-59.66v-.12l.28-67.5-109.66-.12Z" style="fill:#231f20;"/><path d="M35.4,78.28c-2.96-1.44-7.61,.95-10.71-.24,.98,4.08,6.83,3.21,8.57,2.99l2.15-2.75h0Z" style="fill:#ffd300; fill-rule:evenodd;"/><path d="M30.38,81.75c-2.45,0-5.45-.6-6.17-3.6l-.22-.92,.89,.34c1.38,.53,3.2,.28,4.97,.03,2.02-.28,4.12-.58,5.78,.23l.56,.27-2.66,3.4-.37,.05c-.62,.08-1.64,.21-2.78,.21Zm-4.87-2.98c1.24,2.26,4.79,2.12,7.49,1.78l1.61-2.05c-1.31-.38-2.92-.15-4.61,.08-1.52,.21-3.08,.44-4.48,.19Z" style="fill:#231f20;"/><g><path d="M11.45,19.52c3.96,0,7.18,3.23,7.18,7.18s-3.23,7.18-7.18,7.18-7.18-3.23-7.18-7.18,3.23-7.18,7.18-7.18h0Z" style="fill:#dadada;"/><path d="M11.45,34.39c-4.24,0-7.69-3.45-7.69-7.69s3.45-7.68,7.69-7.68,7.68,3.45,7.68,7.68-3.45,7.69-7.68,7.69Zm0-14.37c-3.69,0-6.68,3-6.68,6.68s3,6.68,6.68,6.68,6.68-3,6.68-6.68-3-6.68-6.68-6.68Z" style="fill:#231f20;"/></g><path d="M22.02,45.8c-.92,0-1.67-.75-1.67-1.67s.75-1.67,1.67-1.67,1.67,.75,1.67,1.67-.75,1.67-1.67,1.67Zm0-2.27c-.33,0-.6,.27-.6,.6s.27,.6,.6,.6,.6-.27,.6-.6-.27-.6-.6-.6Zm54.49,2.16c-.92,0-1.67-.75-1.67-1.67s.75-1.67,1.67-1.67,1.67,.75,1.67,1.67-.75,1.67-1.67,1.67Zm0-2.27c-.33,0-.6,.27-.6,.6s.27,.6,.6,.6,.6-.27,.6-.6-.27-.6-.6-.6Zm-28.42,2.27c-.92,0-1.67-.75-1.67-1.67s.75-1.67,1.67-1.67,1.67,.75,1.67,1.67-.75,1.67-1.67,1.67Zm0-2.27c-.33,0-.6,.27-.6,.6s.27,.6,.6,.6,.6-.27,.6-.6-.27-.6-.6-.6Zm54.36,2.13c-.92,0-1.67-.75-1.67-1.67s.75-1.67,1.67-1.67,1.67,.75,1.67,1.67-.75,1.67-1.67,1.67Zm0-2.27c-.33,0-.6,.27-.6,.6s.27,.6,.6,.6,.6-.27,.6-.6-.27-.6-.6-.6Zm-80.35-1.87c-.92,0-1.67-.75-1.67-1.67s.75-1.67,1.67-1.67,1.67,.75,1.67,1.67-.75,1.67-1.67,1.67Zm0-2.27c-.33,0-.6,.27-.6,.6s.27,.6,.6,.6,.6-.27,.6-.6-.27-.6-.6-.6Zm54.49,2.16c-.92,0-1.67-.75-1.67-1.67s.75-1.67,1.67-1.67,1.67,.75,1.67,1.67-.75,1.67-1.67,1.67Zm0-2.27c-.33,0-.6,.27-.6,.6s.27,.6,.6,.6,.6-.27,.6-.6-.27-.6-.6-.6Zm-28.42,2.27c-.92,0-1.67-.75-1.67-1.67s.75-1.67,1.67-1.67,1.67,.75,1.67,1.67-.75,1.67-1.67,1.67Zm0-2.27c-.33,0-.6,.27-.6,.6s.27,.6,.6,.6,.6-.27,.6-.6-.27-.6-.6-.6Zm54.36,2.13c-.92,0-1.67-.75-1.67-1.67s.75-1.67,1.67-1.67,1.67,.75,1.67,1.67-.75,1.67-1.67,1.67Zm0-2.27c-.33,0-.6,.27-.6,.6s.27,.6,.6,.6,.6-.27,.6-.6-.27-.6-.6-.6Z" style="fill:#231f20;"/><g><polygon points=".92 41.9 8.55 36.98 16.39 41.93 8.55 46.62 .92 41.9 .92 41.9 .92 41.9" style="fill:#f33;"/><path d="M8.54,47.19L0,41.91l8.54-5.51,8.79,5.55-8.8,5.25Zm-6.7-5.31l6.71,4.15,6.9-4.12-6.9-4.35-6.7,4.32Z" style="fill:#231f20;"/></g><path d="M8.52,47.29v-1H116.83v.99H8.52Zm108.17-10.04H8.62v-1H116.69v1Z" style="fill:#231f20;"/><g><path d="M54.32,70.27c-8.1-2.67-14.32,.48-19.68,1.24-3.97,.35-7.34-1.14-7.34,4.05,.41,.95,5.44,.95,5.36,2.53,.49,2.09-3.59,2.85-2.5,3.91,1.85,2.45,5.27,.11,7.72,.82,2.2,.95,1.8,1.93,5.25,2.15-9.19,.54-9.87,9.65-16.72,9.9,1.2,1.9,2.67,2.12,3.89,1.93-1.36,2.26-4.49,4.9-7.42,4.9,1.01,1.01,1.85,1.36,2.45,1.71-1.06,1.66-1.9,4.32-1.9,7.34,.71,0,1.52-.35,1.93-.62-.92,1.71-.82,4.19-.82,5.55,.71,0,2.26-1.25,3.4-2.12-.9,2.39-.79,6.72,.6,9.76-1.22,.82-10.58,.98-13.95,3.04-1.69,1.03-1.79,2.75-1.36,5,.95,4.76,3.83,4.54,8.97,16.86,1.58,3.78,4.43,4.68,7.94,5.06,1.9,.22,2.88,.16,3.97-.08,.25-1.22-2.83-5.6-5.63-6.17,.82-.22,1.85-.25,2.39-1.22-1.6-1.79-6.34-1.71-6.88-5.28-.54-2.77-1.39-6.06-2.72-8.62,4.49,2.26,14.6,2.45,16.26,1.03,1.85,3.1,.6,4.4,.98,7.56,1.11,4.87,2.69,2.75,2.2,18.16-.06,2.66-1.98,3.73-3.13,5.74-1.31,2.31-1.88,4.49-2.58,6.06,5.25,1.55,7.94-1.06,9.87-5.66,1.11,1.31,2.12,2.15,2.99,2.42,1.9-3.32-1.82-8.76-1.74-15.04,.08-4.87,2.04-11.75,2.88-16.53,1.79,.3,7.8-.52,10.52-1.44,2.39-.84,4.73-2.23,6.77-3.26,.24,1.2,.65,2.47,1.2,3.86,1.9,6.88,13.43,7.18,7.1,16.07-2.23,3.13-5.06,7.53-10.6,11.23-1.09,.76-4.41,6.12-4.41,9.84,3.51,0,7.83-2.96,8.86-6.31,.22,1.36,1.33,2.58,2.69,3.13,.71-7.53,7.04-14.52,12.86-19.63,.98-.95,1.6-1.47,2.58-2.12,.62-.44,1.14-5.63,.79-5.98-.79-.92-.95-2.09-.35-2.5,1.55,.9,2.5,1.47,3.7,2.01,4.65,2.2,5.6,6.72,4.7,8.78-2.47,5.06-6.99,10.47-12.18,13.43-2.28,1.58-3.75,5.33-4.7,8.89,5.49,.43,9.08-3.97,10.96-7.13,.27,1.96,1.06,2.69,1.77,3.02,1.33-3.92,4.76-10.74,9.03-14.93,2.18-1.96,3.78-2.42,3.78-5.11,0-1.88,.71-3.43,.76-4.84-4.76-1.52-4.59-3.32-4.35-6.93,.38-5.63,4.57-13.54-.52-21.29,2.88,5.68,8.65,2.07,9.73,.03-.79,.16-1.17,.19-2.15-.03,1.42-.95,3.24-3.21,2.8-4.81-2.88,2.39-5.98,3.89-11.75,.19-8.08-5.14-16.32-1.71-23.93-2.2-.3-.44,.05-1.28,.11-1.82-1.77-.38-3.56,.33-4.7,.3-.03-.79,.43-1.44,.68-2.04-1.28-.3-6.01,1.22-7.29,1.74,.03-.63,.49-1.52,1.14-2.88-2.8-.33-8.54,3.72-8.81-.46,.98-.11,2.23,.44,3.45-.43-.41-1.41-.98-2.2-.54-3.29,1.33-.11,2.5,.38,4.6-1.36-1.79-1.79-2.72-2.48-2.2-4.32,.84-.38,2.61,.52,4.46-1.63-2.39-1.36-3.37-2.5-3.53-3.81,2.01-.3,4.11-2.07,4.46-3.29-.98-.16-2.04,.08-4-1.41,1.71-1.5,2.8-3.26,3.02-4.24-1.2,.22-3.81,.71-4.02-.05,.6-.6,1.03-1.05,1.25-2,2.28-.05,16.59,12.61,22.66,15.02,7.18,2.88,14.93,2.18,21.67-3.4,2.26-1.87,3.64-4.51,6.91-5.71-3.56-3.56-10.85,2.5-13.22,4.87-3.56,3.56-5.6-1.71-1.66-3.29,5.27-2.15,7.99-5.66,7.5-8.24-.08-.41-.68-.14-1.33,.03,.25-1.33,.52-2.88,1.79-4.13l7.37-7.18c-12.05-3.43-9.9,9.82-16.67,9.41-3.97-4.16,5.74-5.63,3.83-12.59-5.55-.79-7.1,8.37-11.83,10.66-5.36,2.58-6.12-4.16-2.99-7.37,1.41-1.41,3.54-3.51,6.74-4.38-8.21-3.18-14.55,9.38-19.14,9.52,.35-1.39,3.15-7.94,6.15-9.65-6.77-.95-9,6.58-12.13,9.25-.22-1.66,.35-6.58,5.25-10.9-7.18,0-7.15,5.68-10.96,9.52-4.46-2.26-5.55-5.85-4.73-9.41-4.19,1.41-3.15,6.93-1.8,9.46-4-2.31-4.57-4.98-5.6-8.37-3.26,2.58-2.47,9.05,3.43,10.44h0l.35,.12Z" style="fill:#ffd300; fill-rule:evenodd;"/><path d="M59.58,172.46h-.5v-.5c0-3.83,3.35-9.37,4.62-10.25,5-3.33,7.71-7.18,9.89-10.27l.59-.84c3.62-5.08,1.1-7.03-2.09-9.5-2.02-1.57-4.31-3.34-5.08-6.15-.46-1.18-.82-2.26-1.06-3.25-.33,.17-.67,.35-1.01,.54-1.6,.85-3.42,1.82-5.24,2.46-2.56,.87-8,1.64-10.28,1.51-.26,1.39-.6,2.93-.95,4.56-.84,3.82-1.79,8.15-1.84,11.44-.04,2.72,.67,5.32,1.3,7.62,.82,3.02,1.54,5.64,.37,7.66l-.2,.35-.38-.12c-.8-.25-1.69-.9-2.7-1.98-1.61,3.52-4.27,6.96-10.16,5.22l-.55-.16,.23-.52c.24-.53,.46-1.13,.7-1.78,.48-1.3,1.03-2.77,1.9-4.33,.4-.7,.88-1.28,1.34-1.84,.91-1.1,1.69-2.05,1.72-3.66,.36-11.24-.38-13.04-1.23-15.12-.32-.79-.66-1.6-.96-2.93-.15-1.22-.08-2.15-.01-2.97,.1-1.33,.19-2.4-.67-4.01-2.55,1.15-10.47,.91-15.06-.75,.87,2,1.6,4.53,2.19,7.55,.3,1.98,2.12,2.71,3.88,3.41,1.14,.45,2.21,.88,2.88,1.63l.24,.26-.17,.31c-.32,.58-.77,.89-1.25,1.08,2.5,1.43,4.81,4.81,4.54,6.17l-.06,.32-.32,.07c-1.22,.28-2.31,.3-4.14,.09-3.84-.42-6.73-1.49-8.35-5.36-2.81-6.74-4.91-9.65-6.44-11.77-1.23-1.71-2.11-2.94-2.56-5.18-.39-2.02-.5-4.25,1.59-5.53,2.15-1.32,6.43-1.87,9.87-2.31,1.46-.19,2.96-.38,3.68-.58-1.06-2.65-1.23-5.88-.8-8.21-1.09,.81-1.93,1.34-2.54,1.34h-.5v-.89c0-1.15-.02-2.76,.4-4.2-.33,.1-.68,.16-1.01,.16h-.5v-.5c0-2.61,.63-5.24,1.71-7.16-.55-.3-1.29-.72-2.11-1.54l.35-.85c2.32,0,4.92-1.84,6.45-3.85-1.35-.09-2.47-.83-3.34-2.21l-.46-.73,.87-.03c2.98-.11,4.7-2,6.69-4.19,1.85-2.04,3.9-4.29,7.29-5.25-.47-.21-.8-.46-1.15-.72-.4-.3-.82-.61-1.54-.92-.78-.22-1.8-.05-2.87,.13-1.75,.3-3.74,.63-5.05-1.1-.25-.24-.3-.54-.28-.74,.05-.57,.6-.96,1.24-1.42,.96-.67,1.62-1.21,1.45-1.95l-.02-.07v-.07c.03-.49-1.75-.91-2.71-1.13-1.35-.31-2.33-.54-2.61-1.18l-.04-.2c0-1.7,.34-2.82,1.07-3.54,1.01-1,2.53-.97,4.3-.96,.78,.01,1.59,.02,2.44-.05,1.33-.19,2.74-.54,4.24-.91,3.42-.84,7.18-1.77,11.54-1.23-1.04-.93-1.76-2.14-2.07-3.54-.52-2.32,.24-4.68,1.94-6.02l.57-.46,.41,1.35c.8,2.67,1.41,4.71,3.82,6.54-.62-1.84-.86-4.1-.15-5.89,.53-1.33,1.5-2.25,2.9-2.72l.85-.29-.2,.87c-.6,2.63-.35,6.24,4.14,8.68,1.03-1.11,1.77-2.38,2.49-3.61,1.74-2.98,3.38-5.79,8.56-5.79l.33,.88c-3.87,3.42-4.94,7.24-5.1,9.33,.58-.67,1.15-1.48,1.75-2.33,2.17-3.09,4.87-6.94,9.97-6.22l.18,.93c-2.44,1.4-4.84,6.39-5.66,8.58,1.44-.48,3.16-2.07,4.96-3.75,3.68-3.42,8.26-7.67,13.63-5.59l-.05,.95c-3.11,.84-5.16,2.89-6.52,4.25-1.83,1.88-2.12,4.94-1.14,6.3,.87,1.21,2.42,.81,3.56,.26,1.87-.9,3.28-3.05,4.63-5.13,1.95-2.99,3.97-6.07,7.48-5.57l.33,.05,.09,.32c1.04,3.82-1.15,6.1-2.91,7.92-1.74,1.81-2.54,2.77-1.18,4.31,2.36,0,3.5-1.89,4.8-4.12,1.93-3.29,4.34-7.39,11.77-5.28l.83,.24-7.99,7.78c-.93,.91-1.28,2.02-1.5,3.08,.31-.07,.59-.08,.84,.07,.12,.08,.28,.22,.34,.5,.58,3.08-2.63,6.69-7.81,8.8-1.35,.54-1.83,1.53-1.84,2.27,0,.57,.24,1.02,.65,1.19,.59,.24,1.43-.12,2.3-.99,.38-.38,9.45-9.34,13.92-4.87l.55,.55-.73,.27c-2.08,.76-3.33,2.12-4.67,3.56-.65,.7-1.32,1.43-2.09,2.07-6.5,5.38-14.38,6.61-22.18,3.48-3.23-1.29-8.69-5.38-13.5-8.98-1.96-1.47-4.05-3.04-5.74-4.2-.27,.96-1.18,2.51-2.68,3.95,1.17,.78,1.95,.84,2.64,.9,.22,.02,.43,.04,.64,.07l.55,.09-.16,.54c-.38,1.3-2.29,3.02-4.34,3.54,.32,1,1.31,1.92,3.19,2.98l.53,.3-.4,.46c-1.45,1.69-2.91,1.69-3.87,1.69-.2,0-.4,0-.55,.02-.25,1.21,.32,1.76,1.68,3.11l.85,.85-.42,.35c-1.79,1.49-3.01,1.48-4.09,1.46-.15,0-.3,0-.45,0-.1,.5,.06,.96,.31,1.65,.11,.31,.23,.64,.34,1.02l.1,.34-.29,.21c-1,.71-2.01,.62-2.82,.55-.12,0-.24-.02-.35-.03,.08,.33,.23,.56,.43,.7,.76,.52,2.5-.02,4.03-.5,1.35-.42,2.75-.85,3.83-.73l.7,.08-.49,1.03c-.28,.58-.52,1.08-.68,1.48,1.76-.61,5.4-1.74,6.68-1.43l.57,.13-.22,.54c-.07,.16-.15,.33-.23,.5-.13,.27-.26,.54-.34,.82,.25-.03,.53-.08,.82-.13,.98-.17,2.2-.38,3.42-.12l.44,.09-.04,.44c-.02,.18-.06,.38-.11,.6-.04,.19-.11,.49-.12,.7,2.21,.11,4.46-.1,6.83-.32,5.54-.52,11.28-1.05,16.99,2.58,5.72,3.67,8.54,2.02,11.16-.15l.6-.5,.2,.75c.4,1.49-.77,3.37-2.07,4.6,.26,0,.5-.05,.83-.12l1.04-.21-.5,.94c-.73,1.36-3.28,3.31-5.89,3.29-.66,0-1.44-.14-2.23-.57,1.74,4.81,.68,9.57-.2,13.54-.38,1.73-.74,3.36-.84,4.8-.24,3.59-.34,5.03,4,6.42l.36,.12v.38c-.04,.67-.2,1.35-.36,2.07-.2,.87-.41,1.76-.41,2.75,0,2.32-1.14,3.21-2.57,4.35-.42,.33-.88,.7-1.37,1.14-4.27,4.19-7.66,11.1-8.89,14.72l-.18,.53-.5-.23c-.85-.39-1.44-1.11-1.78-2.18-2.21,3.32-5.74,6.73-10.77,6.33l-.6-.05,.16-.58c1.26-4.71,2.91-7.8,4.9-9.17,4.76-2.72,9.35-7.78,12.02-13.24,.77-1.77-.06-6.02-4.47-8.11-1.08-.49-1.98-1.02-3.24-1.74l-.1-.06v.02c-.05,.34,.11,.94,.58,1.49,.11,.11,.36,.36,.16,2.64-.12,1.33-.41,3.64-1.04,4.08-.95,.63-1.56,1.13-2.52,2.07-7.89,6.93-12.16,13.43-12.71,19.32l-.06,.67-.62-.25c-1.11-.44-2.02-1.25-2.55-2.22-1.61,2.97-5.46,5.44-8.82,5.44Zm7.07-42.25l.13,.64c.23,1.11,.61,2.35,1.17,3.78,.7,2.54,2.76,4.13,4.75,5.67,3.18,2.46,6.47,5.01,2.29,10.87l-.59,.83c-2.11,2.99-5,7.09-10.15,10.52-.94,.66-3.88,5.42-4.16,8.9,3.25-.27,6.97-3.03,7.87-5.93l.97,.07c.15,.95,.84,1.87,1.78,2.44,.83-6.03,5.08-12.33,12.95-19.25,1-.97,1.64-1.5,2.64-2.16,.39-.5,.83-4.57,.65-5.29-.58-.71-.87-1.55-.78-2.22,.06-.42,.25-.75,.56-.97l.26-.18,.77,.45c1.27,.74,2.12,1.23,3.16,1.7,4.84,2.29,6,7.03,4.96,9.44-2.76,5.65-7.51,10.88-12.39,13.67-1.68,1.16-3.14,3.85-4.3,7.99h.1c4.67,0,7.88-3.71,9.78-6.91l.92,.19c.15,1.1,.49,1.87,1.01,2.33,1.61-4.42,4.99-10.65,8.94-14.53,.52-.47,1-.85,1.44-1.19,1.41-1.12,2.19-1.73,2.19-3.56,0-1.1,.23-2.1,.44-2.98,.12-.53,.24-1.03,.3-1.51-4.71-1.61-4.56-3.75-4.33-7.23,.11-1.61,.48-3.28,.87-5.04,1.02-4.62,2.18-9.82-.69-15.01-.22-.31-.44-.67-.64-1.07l.86-.5c.23,.34,.43,.69,.62,1.03,.86,1.18,1.95,1.78,3.25,1.79,1.66,0,3.34-.94,4.32-1.9-.32,0-.67-.06-1.13-.17l-1.14-.25,.97-.65c1.02-.69,2.27-2.14,2.58-3.36-2.56,1.91-5.86,3.2-11.51-.43-5.42-3.45-10.98-2.93-16.36-2.43-2.42,.23-4.93,.46-7.34,.31l-.24-.02-.14-.2c-.33-.49-.19-1.12-.07-1.68h0c-.87-.1-1.76,.05-2.56,.19-.57,.1-1.12,.18-1.57,.18h-.47l-.02-.48c-.02-.61,.19-1.14,.4-1.58-1.62,.15-5.03,1.21-6.32,1.73l-.72,.29,.03-.78c.03-.6,.35-1.32,.84-2.35-.78,.09-1.74,.39-2.67,.68-1.92,.6-3.74,1.16-4.9,.37-.57-.39-.88-1.06-.94-1.99l-.03-.48,.48-.05c.35-.04,.72,0,1.07,.02,.64,.06,1.25,.11,1.85-.19-.07-.21-.14-.41-.21-.59-.32-.9-.6-1.68-.21-2.66l.12-.29,.31-.02c.3-.02,.59-.02,.88-.02,.89,.02,1.74,.02,3-.89l-.06-.06c-1.51-1.49-2.42-2.39-1.87-4.36l.06-.22,.21-.1c.97-.44,2.32,.34,3.86-1.07-2.08-1.27-3.05-2.44-3.23-3.85l-.06-.48,.48-.07c1.58-.24,3.12-1.43,3.77-2.38-.86-.07-1.93-.21-3.54-1.44l-.49-.37,.46-.4c1.22-1.06,2.13-2.3,2.58-3.22-1.9,.31-3.46,.4-3.74-.56l-.08-.28,.21-.21c.59-.59,.93-.96,1.11-1.76l.09-.38h.41c1.22,0,4.28,2.24,9.56,6.2,4.76,3.57,10.16,7.61,13.27,8.85,7.45,2.99,14.96,1.81,21.17-3.32,.72-.6,1.34-1.27,2-1.98,1.19-1.28,2.42-2.61,4.25-3.48-3.21-1.91-9.07,2.54-11.89,5.35-1.61,1.61-2.82,1.45-3.4,1.21-.78-.33-1.27-1.16-1.26-2.12,0-1.07,.66-2.47,2.46-3.19,5.1-2.08,7.46-5.27,7.23-7.47-.12,.03-.26,.07-.37,.1-.12,.04-.25,.07-.38,.1l-.75,.19,.14-.76c.25-1.39,.56-3.05,1.94-4.4l6.73-6.56c-6.02-1.38-7.93,1.88-9.79,5.04-1.38,2.36-2.8,4.79-5.92,4.6h-.2l-.14-.15c-2.28-2.39-.59-4.14,1.05-5.84,1.61-1.67,3.43-3.56,2.75-6.64-2.71-.16-4.39,2.43-6.18,5.17-1.43,2.19-2.91,4.46-5.03,5.48-2.94,1.42-4.34,.07-4.8-.58-1.37-1.9-.78-5.52,1.24-7.59,1.13-1.13,2.89-2.89,5.41-3.97-4.15-.63-7.81,2.76-11.08,5.8-2.37,2.2-4.42,4.1-6.36,4.16l-.66,.02,.16-.64c.28-1.11,2.48-6.55,5.24-9.11-3.67,.13-5.79,3.17-7.69,5.87-.91,1.29-1.76,2.51-2.72,3.33l-.7,.6-.12-.91c-.25-1.89,.41-6.31,4.41-10.39-3.57,.44-4.88,2.67-6.37,5.21-.81,1.38-1.65,2.81-2.9,4.08l-.26,.26-.32-.16c-3.89-1.97-5.69-5.14-5.17-9-.67,.41-1.16,1-1.46,1.76-.86,2.19-.01,5.15,.77,6.61l-.69,.67c-3.86-2.23-4.69-4.85-5.6-7.89-1,1.14-1.4,2.82-1.03,4.49,.47,2.09,1.96,3.65,4.15,4.36,.17,.05,.34,.1,.52,.15,.05,.01,.09,.02,.14,.04l.4,.13-.32,.95c-.18-.06-.35-.11-.53-.17-.17-.04-.33-.09-.49-.14-5.44-1.49-10.01-.36-14.07,.64-1.52,.38-2.96,.73-4.37,.93-.92,.08-1.79,.07-2.56,.06-1.6-.02-2.87-.04-3.58,.67-.5,.49-.75,1.37-.77,2.67,.25,.18,1.22,.41,1.87,.56,1.63,.38,3.48,.81,3.49,2.08,.29,1.41-.95,2.29-1.86,2.93-.31,.22-.78,.55-.83,.69,1.03,1.29,2.49,1.05,4.17,.76,1.14-.19,2.31-.39,3.37-.08,.89,.38,1.37,.74,1.8,1.06,.73,.54,1.25,.94,3.34,1.07v1c-4.71,.28-7.06,2.87-9.34,5.38-1.86,2.05-3.63,4-6.49,4.43,.78,.88,1.71,1.21,2.88,1.02l1.06-.17-.55,.92c-1.31,2.17-3.95,4.46-6.65,5.01,.42,.31,.79,.51,1.12,.69,.14,.08,.27,.15,.39,.22l.45,.26-.28,.44c-1.06,1.66-1.73,4.06-1.81,6.51,.47-.11,.91-.32,1.14-.48l.72,.65c-.73,1.35-.77,3.26-.76,4.63,.65-.34,1.64-1.11,2.25-1.57l.35-.27,.77,.57c-.8,2.14-.8,6.33,.59,9.38l.18,.39-.35,.24c-.55,.36-1.92,.55-4.49,.88-3.17,.41-7.5,.96-9.48,2.17-1.28,.79-1.6,2.04-1.13,4.48,.41,2.03,1.15,3.07,2.39,4.79,1.56,2.17,3.7,5.13,6.55,11.97,1.43,3.43,3.94,4.36,7.53,4.75,1.68,.19,2.57,.16,3.41,0-.29-1.29-2.83-4.79-5.22-5.28l-.03-.97c.16-.04,.32-.08,.49-.11,.54-.12,1.02-.22,1.37-.57-.55-.43-1.36-.76-2.22-1.1-1.92-.77-4.11-1.64-4.49-4.16-.7-3.55-1.6-6.41-2.67-8.46l.67-.68c4.36,2.2,14.22,2.38,15.71,1.1l.45-.38,.3,.51c1.28,2.14,1.17,3.55,1.05,5.04-.06,.81-.13,1.65,0,2.72,.28,1.19,.59,1.97,.9,2.72,.9,2.19,1.67,4.07,1.31,15.52-.04,1.95-1.01,3.13-1.95,4.27-.44,.53-.89,1.08-1.24,1.7-.84,1.48-1.37,2.92-1.84,4.18-.17,.46-.33,.9-.5,1.31,4.07,1,6.69-.67,8.73-5.52l.31-.75,.53,.62c.9,1.06,1.7,1.76,2.37,2.1,.66-1.64,.05-3.91-.66-6.51-.64-2.36-1.37-5.04-1.34-7.9,.06-3.39,1.02-7.77,1.86-11.64,.39-1.79,.76-3.48,1.03-4.97l.09-.49,.49,.08c1.72,.29,7.68-.54,10.28-1.42,1.75-.62,3.45-1.52,5.1-2.4,.55-.29,1.09-.58,1.6-.84l.58-.3Zm-4.4-51.68c.38,.03,1.18-.01,2.72-.28-.81-.53-1.47-.91-1.89-1.07-.2,.58-.5,.99-.83,1.35Z" style="fill:#231f20;"/></g><path d="M59.58,172.46h-.5v-.5c0-3.83,3.35-9.37,4.62-10.25,5-3.33,7.71-7.18,9.89-10.27l.59-.84c3.62-5.08,1.1-7.03-2.09-9.5-2.02-1.57-4.31-3.34-5.08-6.15-.46-1.18-.82-2.26-1.06-3.25-.33,.17-.67,.35-1.01,.54-1.6,.85-3.42,1.82-5.24,2.46-2.56,.87-8,1.64-10.28,1.51-.26,1.39-.6,2.93-.95,4.56-.84,3.82-1.79,8.15-1.84,11.44-.04,2.72,.67,5.32,1.3,7.62,.82,3.02,1.54,5.64,.37,7.66l-.2,.35-.38-.12c-.8-.25-1.69-.9-2.7-1.98-1.61,3.52-4.27,6.96-10.16,5.22l-.55-.16,.23-.52c.24-.53,.46-1.13,.7-1.78,.48-1.3,1.03-2.77,1.9-4.33,.4-.7,.88-1.28,1.34-1.84,.91-1.1,1.69-2.05,1.72-3.66,.36-11.24-.38-13.04-1.23-15.12-.32-.79-.66-1.6-.96-2.93-.15-1.22-.08-2.15-.01-2.97,.1-1.33,.19-2.4-.67-4.01-2.55,1.15-10.47,.91-15.06-.75,.87,2,1.6,4.53,2.19,7.55,.3,1.98,2.12,2.71,3.88,3.41,1.14,.45,2.21,.88,2.88,1.63l.24,.26-.17,.31c-.32,.58-.77,.89-1.25,1.08,2.5,1.43,4.81,4.81,4.54,6.17l-.06,.32-.32,.07c-1.22,.28-2.31,.3-4.14,.09-3.84-.42-6.73-1.49-8.35-5.36-2.81-6.74-4.91-9.65-6.44-11.77-1.23-1.71-2.11-2.94-2.56-5.18-.39-2.02-.5-4.25,1.59-5.53,2.15-1.32,6.43-1.87,9.87-2.31,1.46-.19,2.96-.38,3.68-.58-1.06-2.65-1.23-5.88-.8-8.21-1.09,.81-1.93,1.34-2.54,1.34h-.5v-.89c0-1.15-.02-2.76,.4-4.2-.33,.1-.68,.16-1.01,.16h-.5v-.5c0-2.61,.63-5.24,1.71-7.16-.55-.3-1.29-.72-2.11-1.54l.35-.85c2.32,0,4.92-1.84,6.45-3.85-1.35-.09-2.47-.83-3.34-2.21l-.46-.73,.87-.03c2.98-.11,4.7-2,6.69-4.19,1.85-2.04,3.9-4.29,7.29-5.25-.47-.21-.8-.46-1.15-.72-.4-.3-.82-.61-1.54-.92-.78-.22-1.8-.05-2.87,.13-1.75,.3-3.74,.63-5.05-1.1-.25-.24-.3-.54-.28-.74,.05-.57,.6-.96,1.24-1.42,.96-.67,1.62-1.21,1.45-1.95l-.02-.07v-.07c.03-.49-1.75-.91-2.71-1.13-1.35-.31-2.33-.54-2.61-1.18l-.04-.2c0-1.7,.34-2.82,1.07-3.54,1.01-1,2.53-.97,4.3-.96,.78,.01,1.59,.02,2.44-.05,1.37-.2,2.82-.57,4.35-.97,3.33-.87,7-1.82,11.35-1.25-1-.92-1.69-2.1-1.99-3.46-.52-2.32,.24-4.68,1.94-6.02l.57-.46,.41,1.35c.8,2.67,1.41,4.71,3.82,6.54-.62-1.84-.86-4.1-.15-5.89,.53-1.33,1.5-2.25,2.9-2.72l.85-.29-.2,.87c-.55,2.4-.39,5.62,3.06,8.02,.42,.04,.84,.09,1.25,.17l.24,.04c.83-1,1.47-2.09,2.09-3.16,1.74-2.98,3.38-5.79,8.56-5.79l.33,.88c-3.87,3.42-4.94,7.24-5.1,9.33,.58-.67,1.15-1.48,1.75-2.33,2.17-3.09,4.87-6.94,9.97-6.22l.18,.93c-2.44,1.4-4.84,6.39-5.66,8.58,1.44-.48,3.16-2.07,4.96-3.75,3.68-3.42,8.26-7.67,13.63-5.59l-.05,.95c-3.11,.84-5.16,2.89-6.52,4.25-1.83,1.88-2.12,4.94-1.14,6.3,.87,1.21,2.42,.81,3.56,.26,1.87-.9,3.28-3.05,4.63-5.13,1.95-2.99,3.97-6.07,7.48-5.57l.33,.05,.09,.32c1.04,3.82-1.15,6.1-2.91,7.92-1.74,1.81-2.54,2.77-1.18,4.31,2.36,0,3.5-1.89,4.8-4.12,1.93-3.29,4.34-7.39,11.77-5.28l.83,.24-7.99,7.78c-.93,.91-1.28,2.02-1.5,3.08,.31-.07,.59-.08,.84,.07,.12,.08,.28,.22,.34,.5,.58,3.08-2.63,6.69-7.81,8.8-1.35,.54-1.83,1.53-1.84,2.27,0,.57,.24,1.02,.65,1.19,.59,.24,1.43-.12,2.3-.99,.38-.38,9.45-9.34,13.92-4.87l.55,.55-.73,.27c-2.08,.76-3.33,2.12-4.67,3.56-.65,.7-1.32,1.43-2.09,2.07-6.5,5.38-14.38,6.61-22.18,3.48-3.23-1.29-8.68-5.37-13.49-8.98-1.96-1.47-4.06-3.04-5.75-4.21-.26,.96-1.18,2.51-2.68,3.95,1.17,.78,1.95,.84,2.64,.9,.22,.02,.43,.04,.64,.07l.55,.09-.16,.54c-.38,1.3-2.29,3.02-4.34,3.54,.32,1,1.31,1.92,3.19,2.98l.53,.3-.4,.46c-1.45,1.69-2.91,1.69-3.87,1.69-.2,0-.4,0-.55,.02-.25,1.21,.32,1.76,1.68,3.11l.85,.85-.42,.35c-1.79,1.49-3.01,1.48-4.09,1.46-.15,0-.3,0-.45,0-.1,.5,.06,.96,.31,1.65,.11,.31,.23,.64,.34,1.02l.1,.34-.29,.21c-1,.71-2.01,.62-2.82,.55-.12,0-.24-.02-.35-.03,.08,.33,.23,.56,.43,.7,.76,.52,2.5-.02,4.03-.5,1.35-.42,2.75-.85,3.83-.73l.7,.08-.49,1.03c-.28,.58-.52,1.08-.68,1.48,1.76-.61,5.4-1.74,6.68-1.43l.57,.13-.22,.54c-.07,.16-.15,.33-.23,.5-.13,.27-.26,.54-.34,.82,.25-.03,.53-.08,.82-.13,.98-.17,2.2-.38,3.42-.12l.44,.09-.04,.44c-.02,.18-.06,.38-.11,.6-.04,.19-.11,.49-.12,.7,2.21,.11,4.46-.1,6.83-.32,5.54-.52,11.28-1.05,16.99,2.58,5.72,3.67,8.54,2.02,11.16-.15l.6-.5,.2,.75c.4,1.49-.77,3.37-2.07,4.6,.26,0,.5-.05,.83-.12l1.04-.21-.5,.94c-.73,1.36-3.28,3.31-5.89,3.29-.66,0-1.44-.14-2.23-.57,1.74,4.81,.68,9.57-.2,13.54-.38,1.73-.74,3.36-.84,4.8-.24,3.59-.34,5.03,4,6.42l.36,.12v.38c-.04,.67-.2,1.35-.36,2.07-.2,.87-.41,1.76-.41,2.75,0,2.32-1.14,3.21-2.57,4.35-.42,.33-.88,.7-1.37,1.14-4.27,4.19-7.66,11.1-8.89,14.72l-.18,.53-.5-.23c-.85-.39-1.44-1.11-1.78-2.18-2.21,3.32-5.74,6.73-10.77,6.33l-.6-.05,.16-.58c1.26-4.71,2.91-7.8,4.9-9.17,4.76-2.72,9.35-7.78,12.02-13.24,.77-1.77-.06-6.02-4.47-8.11-1.08-.49-1.98-1.02-3.24-1.74l-.1-.06v.02c-.05,.34,.11,.94,.58,1.49,.11,.11,.36,.36,.16,2.64-.12,1.33-.41,3.64-1.04,4.08-.95,.63-1.56,1.13-2.52,2.07-7.89,6.93-12.16,13.43-12.71,19.32l-.06,.67-.62-.25c-1.11-.44-2.02-1.25-2.55-2.22-1.61,2.97-5.46,5.44-8.82,5.44Zm7.28-41.25c.23,1.02,.59,2.14,1.1,3.42,.7,2.54,2.76,4.13,4.75,5.67,3.18,2.46,6.47,5.01,2.29,10.87l-.59,.83c-2.11,2.99-5,7.09-10.15,10.52-.94,.66-3.88,5.42-4.16,8.9,3.25-.27,6.97-3.03,7.87-5.93l.97,.07c.15,.95,.84,1.87,1.78,2.44,.83-6.03,5.08-12.33,12.95-19.25,1-.97,1.64-1.5,2.64-2.16,.39-.5,.83-4.57,.65-5.29-.58-.71-.87-1.55-.78-2.22,.02-.12,.04-.24,.08-.35-6.05-3.97-8.9-6.69-9.91-9.82l-.56,.05c-2.66,.22-5.66,.47-8.92,2.23Zm12.32,39.98h.1c4.67,0,7.88-3.71,9.78-6.91l.92,.19c.15,1.1,.49,1.87,1.01,2.33,1.61-4.42,4.99-10.65,8.94-14.53,.52-.47,1-.85,1.44-1.19,1.41-1.12,2.19-1.73,2.19-3.56,0-1.1,.23-2.1,.44-2.98,.12-.53,.24-1.03,.3-1.51-4.71-1.61-4.56-3.75-4.33-7.23,.11-1.61,.48-3.28,.87-5.04,1.02-4.62,2.18-9.82-.69-15.01-.22-.31-.44-.67-.64-1.07l.86-.5c.23,.34,.43,.69,.62,1.03,.86,1.18,1.95,1.78,3.25,1.79,1.66,0,3.34-.94,4.32-1.9-.32,0-.67-.06-1.13-.17l-1.14-.25,.97-.65c1.02-.69,2.27-2.14,2.58-3.36-2.56,1.91-5.86,3.2-11.51-.43-5.42-3.45-10.98-2.93-16.36-2.43-2.42,.23-4.93,.46-7.34,.31l-.24-.02-.14-.2c-.33-.49-.19-1.12-.07-1.68h0c-.87-.1-1.76,.05-2.56,.19-.57,.1-1.12,.18-1.57,.18h-.47l-.02-.48c-.02-.61,.19-1.14,.4-1.58-1.62,.15-5.03,1.21-6.32,1.73l-.72,.29,.03-.78c.03-.6,.35-1.32,.84-2.35-.78,.09-1.74,.39-2.67,.68-1.92,.6-3.74,1.16-4.9,.37-.57-.39-.88-1.06-.94-1.99l-.03-.48,.48-.05c.35-.04,.72,0,1.07,.02,.64,.06,1.25,.11,1.85-.19-.07-.21-.14-.41-.21-.59-.32-.9-.6-1.68-.21-2.66l.12-.29,.31-.02c.3-.02,.59-.02,.88-.02,.89,.02,1.74,.02,3-.89l-.06-.06c-1.51-1.49-2.42-2.39-1.87-4.36l.06-.22,.21-.1c.97-.44,2.32,.34,3.86-1.07-2.08-1.27-3.05-2.44-3.23-3.85l-.06-.48,.48-.07c1.58-.24,3.12-1.43,3.77-2.38-.86-.07-1.93-.21-3.54-1.44l-.49-.37,.46-.4c1.22-1.06,2.13-2.3,2.58-3.22-1.9,.31-3.46,.4-3.74-.56l-.08-.28,.21-.21c.58-.58,.95-.95,1.13-1.75l.09-.51c-.98,.21-2.21,.13-3.19-.45-.65-.39-1.45-1.16-1.52-2.62l-.02-.32,.28-.15c2.55-1.33,3.97-2.72,4.23-4.14-.34-.19-.67-.38-.98-.58-2.85-.2-5.89,.5-6.86,2.63l-.31-.14-.12,.42c-.36-.08-.71-.19-1.04-.31-5.35-1.47-9.73-.33-13.62,.69-1.56,.4-3.03,.79-4.48,.99-.92,.08-1.79,.07-2.56,.06-1.6-.02-2.87-.04-3.58,.67-.5,.49-.75,1.37-.77,2.67,.25,.18,1.22,.41,1.87,.56,1.63,.38,3.48,.81,3.49,2.08,.29,1.41-.95,2.29-1.86,2.93-.31,.22-.78,.55-.83,.69,1.03,1.29,2.49,1.05,4.17,.76,1.14-.19,2.31-.39,3.37-.08,.89,.38,1.37,.74,1.8,1.06,.73,.54,1.25,.94,3.34,1.07v1c-4.71,.28-7.06,2.87-9.34,5.38-1.86,2.05-3.63,4-6.49,4.43,.78,.88,1.71,1.21,2.88,1.02l1.06-.17-.55,.92c-1.31,2.17-3.95,4.46-6.65,5.01,.42,.31,.79,.51,1.12,.69,.14,.08,.27,.15,.39,.22l.45,.26-.28,.44c-1.06,1.66-1.73,4.06-1.81,6.51,.47-.11,.91-.32,1.14-.48l.72,.65c-.73,1.35-.77,3.26-.76,4.63,.65-.34,1.64-1.11,2.25-1.57l.35-.27,.77,.57c-.8,2.14-.8,6.33,.59,9.38l.18,.39h0c1.93,3.53,4.22,5.68,7.29,8.1-.7-2.03-1.02-3.46-1.05-5.2h1c.02,1.92,.44,3.41,1.4,6.03l.16,.26c1.28,2.14,1.17,3.55,1.05,5.04-.06,.81-.13,1.65,0,2.72,.28,1.19,.59,1.97,.9,2.72,.9,2.19,1.67,4.07,1.31,15.52-.04,1.95-1.01,3.13-1.95,4.27-.44,.53-.89,1.08-1.24,1.7-.84,1.48-1.37,2.92-1.84,4.18-.17,.46-.33,.9-.5,1.31,4.07,1,6.69-.67,8.73-5.52l.31-.75,.53,.62c.9,1.06,1.7,1.76,2.37,2.1,.66-1.64,.05-3.91-.66-6.51-.64-2.36-1.37-5.04-1.34-7.9,.06-3.39,1.02-7.77,1.86-11.64,.39-1.79,.76-3.48,1.03-4.97l.09-.49h.06c.29-1.72,.44-3.49,.47-5.5h1c-.03,2.06-.18,3.86-.48,5.63,2.2,.08,7.35-.67,9.71-1.47,1.75-.62,3.45-1.52,5.1-2.4,.52-.28,1.04-.55,1.53-.8,3.59-2.06,6.84-2.33,9.7-2.57l.39-.03c-.38-1.92-.17-4.05,.35-6.74l.98,.19c-1.42,7.32-.45,10.08,9.51,16.6l.07-.04,.77,.45c1.27,.74,2.12,1.23,3.16,1.7,4.84,2.29,6,7.03,4.96,9.44-2.76,5.65-7.51,10.88-12.39,13.67-1.68,1.16-3.14,3.85-4.3,7.99ZM28.27,123.96c-.73,.23-1.99,.4-3.95,.65-3.17,.41-7.5,.96-9.48,2.17-1.28,.79-1.6,2.04-1.13,4.48,.41,2.03,1.15,3.07,2.39,4.79,1.56,2.17,3.7,5.13,6.55,11.97,1.43,3.43,3.94,4.36,7.53,4.75,1.68,.19,2.57,.16,3.41,0-.29-1.29-2.83-4.79-5.22-5.28l-.03-.97c.16-.04,.32-.08,.49-.11,.54-.12,1.02-.22,1.37-.57-.55-.43-1.36-.76-2.22-1.1-1.92-.77-4.11-1.64-4.49-4.16-.7-3.55-1.6-6.41-2.67-8.46l.67-.68c3.92,1.97,12.25,2.32,15,1.45-3.52-2.72-6.07-4.99-8.23-8.94Zm35.06-47.73c1.48,.5,4.39,2.65,8.98,6.09,4.76,3.57,10.15,7.61,13.26,8.85,7.45,2.99,14.96,1.81,21.17-3.32,.72-.6,1.34-1.27,2-1.98,1.19-1.28,2.42-2.61,4.25-3.48-3.21-1.91-9.07,2.54-11.89,5.35-1.61,1.61-2.82,1.45-3.4,1.21-.78-.33-1.27-1.16-1.26-2.12,0-1.07,.66-2.47,2.46-3.19,5.1-2.08,7.46-5.27,7.23-7.47-.12,.03-.26,.07-.37,.1-.12,.04-.25,.07-.38,.1l-.75,.19,.14-.76c.25-1.39,.56-3.05,1.94-4.4l6.73-6.56c-6.02-1.38-7.93,1.88-9.79,5.04-1.38,2.36-2.8,4.79-5.92,4.6h-.2l-.14-.15c-2.28-2.39-.59-4.14,1.05-5.84,1.61-1.67,3.43-3.56,2.75-6.64-2.71-.16-4.39,2.43-6.18,5.17-1.43,2.19-2.91,4.46-5.03,5.48-2.94,1.42-4.34,.07-4.8-.58-1.37-1.9-.78-5.52,1.24-7.59,1.13-1.13,2.89-2.89,5.41-3.97-4.15-.63-7.81,2.76-11.08,5.8-2.37,2.2-4.42,4.1-6.36,4.16l-.66,.02,.16-.64c.28-1.11,2.48-6.55,5.24-9.11-3.67,.13-5.79,3.17-7.69,5.87-.89,1.27-1.73,2.47-2.67,3.29-1.74,1.82-4.81,3.39-7.93,2.03-.6,.48-1.32,.94-2.16,1.39,.1,.66,.44,1.17,1,1.5,.94,.56,2.31,.5,3.09,.13l.87-.42-.3,1.83Zm-1.07,2.3c.39,.02,1.18-.01,2.72-.28-.8-.52-1.46-.9-1.88-1.05-.2,.57-.5,.97-.85,1.34Zm-.59-7.49c2.4,.79,4.75-.38,6.2-1.8-.16-2,.6-6.24,4.44-10.15-3.57,.44-4.88,2.67-6.37,5.21-.78,1.34-1.59,2.72-2.78,3.95-.11,.96-.61,1.89-1.49,2.79Zm-8.57-1.68c.17,.05,.34,.1,.51,.15,.36-.61,.86-1.11,1.46-1.51-3.15-2.12-3.93-4.57-4.77-7.37-1,1.14-1.4,2.82-1.03,4.49,.44,1.98,1.81,3.49,3.82,4.24Zm4.18-9.89c-.67,.41-1.16,1-1.46,1.76-.77,1.96-.17,4.54,.53,6.11,1.05-.41,2.25-.61,3.49-.65-2.05-1.89-2.94-4.37-2.55-7.22Zm-15.22,14.74l-.13-.45c-.12-.42-.12-.79,0-1.13l-.22-.11,.46-.89,2.26,1.17-.13,.93-2.25,.48Z" style="fill:#231f20;"/><path d="M84.54,76.98c-4.16,7.59-11.39,3.32-11.42-2.5,3.78,.92,7.8,1.01,11.42,2.5h0Z" style="fill:#0064ae; fill-rule:evenodd;"/><path d="M78.97,81.55c-.54,0-.99-.08-1.32-.16-2.85-.72-5.01-3.69-5.03-6.91v-.64h.05c.19-1.86,.69-3.03,1.21-4.26l.92,.39c-.52,1.24-.98,2.32-1.15,4.12,1.27,.29,2.58,.49,3.85,.7,2.41,.38,4.91,.77,7.23,1.73l.52,.21-.27,.49c-1.97,3.6-4.38,4.33-6.01,4.33Zm-5.31-6.44c.27,2.52,2,4.74,4.24,5.31,2.2,.56,4.34-.6,5.92-3.19-2.07-.77-4.3-1.12-6.47-1.46-1.22-.19-2.47-.39-3.69-.66Z" style="fill:#231f20;"/><g><path d="M98.84,78.69c-3.4,1.58-4.73,7.45-7.32,8.35-3.67,1.06-7.34-2.66-2.09-8.81,2.61,.63,5.66,1.41,9.41,.46h0Z" style="fill:#0064ae; fill-rule:evenodd;"/><path d="M90.29,87.71c-1.4,0-2.65-.62-3.36-1.72-.62-.96-1.65-3.67,2.12-8.09l.2-.23,.53,.13c2.54,.61,5.42,1.3,8.94,.41l.33,.94c-1.64,.76-2.78,2.65-3.89,4.47-1.06,1.75-2.07,3.41-3.47,3.89-.47,.14-.94,.2-1.4,.2Zm-.67-8.93c-2.16,2.63-2.85,5.11-1.85,6.67,.7,1.08,2.15,1.53,3.62,1.1,1.04-.36,1.95-1.87,2.92-3.46,.74-1.21,1.54-2.53,2.53-3.55-2.8,.29-5.21-.28-7.22-.76Z" style="fill:#231f20;"/></g><path d="M90.29,87.71c-1.4,0-2.65-.62-3.36-1.72-.62-.96-1.65-3.67,2.12-8.09l.2-.23h0c1.49-1.76,2.83-3.02,4.23-3.98-3.48-1.19-5.38-.31-8.56,3.6l-.78-.63c3.73-4.59,6.12-5.39,10.64-3.55l.94,.38-.87,.51c-1.52,.89-2.92,2.11-4.5,3.92,2.38,.56,5.07,1.09,8.3,.29,2.11-1.26,4.23-2.2,6.47-2.87l.29,.96c-2.23,.66-4.33,1.61-6.44,2.88h0c-1.59,.78-2.71,2.63-3.8,4.42-1.06,1.75-2.07,3.41-3.47,3.89-.47,.14-.94,.2-1.4,.2Zm-.67-8.93c-2.16,2.63-2.85,5.11-1.85,6.67,.7,1.08,2.15,1.53,3.62,1.1,1.04-.36,1.95-1.87,2.92-3.46,.74-1.21,1.54-2.53,2.53-3.55-2.8,.29-5.21-.28-7.22-.76Z" style="fill:#231f20;"/><g><path d="M8.11,5.02c3.96,0,7.18,3.23,7.18,7.18s-3.23,7.18-7.18,7.18S.93,16.16,.93,12.2s3.23-7.18,7.18-7.18h0Z" style="fill:#dadada;"/><path d="M8.11,19.89C3.88,19.89,.43,16.44,.43,12.2s3.45-7.68,7.69-7.68,7.68,3.45,7.68,7.68-3.45,7.69-7.68,7.69Zm0-14.37c-3.69,0-6.68,3-6.68,6.68s3,6.68,6.68,6.68,6.68-3,6.68-6.68-3-6.68-6.68-6.68Z" style="fill:#231f20;"/></g><g><path d="M26.15,19.35c3.96,0,7.18,3.23,7.18,7.18s-3.23,7.19-7.18,7.19-7.18-3.23-7.18-7.19,3.23-7.18,7.18-7.18h0Z" style="fill:#dadada;"/><path d="M26.15,34.22c-4.24,0-7.69-3.45-7.69-7.69s3.45-7.68,7.69-7.68,7.68,3.45,7.68,7.68-3.45,7.69-7.68,7.69Zm0-14.37c-3.69,0-6.68,3-6.68,6.68s3,6.69,6.68,6.69,6.68-3,6.68-6.69-3-6.68-6.68-6.68Z" style="fill:#231f20;"/></g><g><path d="M40.74,19.18c3.96,0,7.18,3.23,7.18,7.18s-3.23,7.19-7.18,7.19-7.18-3.23-7.18-7.19,3.23-7.18,7.18-7.18h0Z" style="fill:#dadada;"/><path d="M40.74,34.05c-4.24,0-7.69-3.45-7.69-7.69s3.45-7.68,7.69-7.68,7.69,3.45,7.69,7.68-3.45,7.69-7.69,7.69Zm0-14.37c-3.69,0-6.68,3-6.68,6.68s3,6.68,6.68,6.68,6.68-3,6.68-6.68-3-6.68-6.68-6.68Z" style="fill:#231f20;"/></g><g><path d="M55.41,19.18c3.96,0,7.18,3.23,7.18,7.18s-3.23,7.19-7.18,7.19-7.18-3.23-7.18-7.19,3.23-7.18,7.18-7.18h0Z" style="fill:#dadada;"/><path d="M55.41,34.05c-4.24,0-7.69-3.45-7.69-7.69s3.45-7.68,7.69-7.68,7.69,3.45,7.69,7.68-3.45,7.69-7.69,7.69Zm0-14.37c-3.69,0-6.68,3-6.68,6.68s3,6.68,6.68,6.68,6.68-3,6.68-6.68-3-6.68-6.68-6.68Z" style="fill:#231f20;"/></g><g><path d="M69.74,19.18c3.96,0,7.18,3.23,7.18,7.18s-3.23,7.19-7.18,7.19-7.18-3.23-7.18-7.19,3.23-7.18,7.18-7.18h0Z" style="fill:#dadada;"/><path d="M69.74,34.05c-4.24,0-7.69-3.45-7.69-7.69s3.45-7.68,7.69-7.68,7.69,3.45,7.69,7.68-3.45,7.69-7.69,7.69Zm0-14.37c-3.69,0-6.68,3-6.68,6.68s3,6.68,6.68,6.68,6.68-3,6.68-6.68-3-6.68-6.68-6.68Z" style="fill:#231f20;"/></g><g><path d="M84.52,19.02c3.96,0,7.18,3.23,7.18,7.18s-3.23,7.19-7.18,7.19-7.18-3.23-7.18-7.19,3.23-7.18,7.18-7.18h0Z" style="fill:#dadada;"/><path d="M84.52,33.89c-4.24,0-7.69-3.45-7.69-7.69s3.45-7.68,7.69-7.68,7.68,3.45,7.68,7.68-3.45,7.69-7.68,7.69Zm0-14.37c-3.69,0-6.68,3-6.68,6.68s3,6.69,6.68,6.69,6.68-3,6.68-6.69-3-6.68-6.68-6.68Z" style="fill:#231f20;"/></g><g><path d="M99.24,19.02c3.96,0,7.18,3.23,7.18,7.18s-3.23,7.19-7.18,7.19-7.18-3.23-7.18-7.19,3.23-7.18,7.18-7.18h0Z" style="fill:#dadada;"/><path d="M99.24,33.89c-4.24,0-7.69-3.45-7.69-7.69s3.45-7.68,7.69-7.68,7.68,3.45,7.68,7.68-3.45,7.69-7.68,7.69Zm0-14.37c-3.69,0-6.68,3-6.68,6.68s3,6.69,6.68,6.69,6.68-3,6.68-6.69-3-6.68-6.68-6.68Z" style="fill:#231f20;"/></g><g><path d="M113.95,19.18c3.96,0,7.18,3.23,7.18,7.18s-3.23,7.19-7.18,7.19-7.18-3.23-7.18-7.19,3.23-7.18,7.18-7.18h0Z" style="fill:#dadada;"/><path d="M113.95,34.05c-4.24,0-7.69-3.45-7.69-7.69s3.45-7.68,7.69-7.68,7.68,3.45,7.68,7.68-3.45,7.69-7.68,7.69Zm0-14.37c-3.69,0-6.68,3-6.68,6.68s3,6.68,6.68,6.68,6.68-3,6.68-6.68-3-6.68-6.68-6.68Z" style="fill:#231f20;"/></g><g><path d="M118.5,5c3.96,0,7.18,3.23,7.18,7.18s-3.23,7.19-7.18,7.19-7.18-3.23-7.18-7.19,3.23-7.18,7.18-7.18h0Z" style="fill:#dadada;"/><path d="M118.5,19.87c-4.24,0-7.69-3.45-7.69-7.69s3.45-7.68,7.69-7.68,7.68,3.45,7.68,7.68-3.45,7.69-7.68,7.69Zm0-14.37c-3.69,0-6.68,3-6.68,6.68s3,6.69,6.68,6.69,6.68-3,6.68-6.69-3-6.68-6.68-6.68Z" style="fill:#231f20;"/></g><g><path d="M62.45,6.02c3.96,0,7.18,3.23,7.18,7.18s-3.23,7.19-7.18,7.19-7.18-3.23-7.18-7.19,3.23-7.18,7.18-7.18h0Z" style="fill:#dadada;"/><path d="M62.45,20.89c-4.24,0-7.69-3.45-7.69-7.69s3.45-7.68,7.69-7.68,7.68,3.45,7.68,7.68-3.45,7.69-7.68,7.69Zm0-14.37c-3.69,0-6.68,3-6.68,6.68s3,6.69,6.68,6.69,6.68-3,6.68-6.69-3-6.68-6.68-6.68Z" style="fill:#231f20;"/></g><path d="M141.66,80.74h7.34v59.23h-7.34v-59.23Z" style="fill:#0064ae;"/><path d="M189.63,130.3c0,3.5,.17,6.92,.58,9.68h-6.59l-.67-5.09h-.25c-2.17,3.17-6.59,6.01-12.35,6.01-8.18,0-12.35-5.76-12.35-11.6,0-9.76,8.68-15.1,24.28-15.02v-.83c0-3.34-.92-9.43-9.18-9.34-3.84,0-7.76,1.08-10.6,3l-1.67-4.92c3.34-2.09,8.26-3.5,13.35-3.5,12.43,0,15.43,8.43,15.43,16.52v15.1Zm-7.17-10.93c-8.01-.17-17.1,1.25-17.1,9.09,0,4.84,3.17,7.01,6.84,7.01,5.34,0,8.76-3.34,9.93-6.76,.25-.75,.33-1.58,.33-2.34v-7.01Z" style="fill:#0064ae;"/><path d="M201.4,110.53c0-4.25-.08-7.59-.33-10.93h6.51l.42,6.59h.17c2-3.75,6.67-7.51,13.35-7.51,5.59,0,14.27,3.34,14.27,17.19v24.11h-7.34v-23.28c0-6.51-2.42-12.01-9.34-12.01-4.76,0-8.51,3.42-9.84,7.51-.33,.92-.5,2.25-.5,3.42v24.36h-7.34v-29.45Z" style="fill:#0064ae;"/><path d="M282.57,80.74v48.8c0,3.59,.08,7.68,.33,10.43h-6.59l-.33-7.01h-.17c-2.25,4.5-7.09,7.93-13.68,7.93-9.76,0-17.35-8.26-17.35-20.52-.08-13.51,8.34-21.69,18.1-21.69,6.26,0,10.43,2.92,12.18,6.09h.17v-24.03h7.34Zm-7.34,35.29c0-1-.08-2.17-.33-3.17-1.08-4.59-5.09-8.43-10.59-8.43-7.59,0-12.1,6.67-12.1,15.52,0,8.26,4.09,15.02,11.93,15.02,4.92,0,9.43-3.34,10.76-8.76,.25-1,.33-2,.33-3.17v-7.01Z" style="fill:#0064ae;"/><path d="M293.75,132.55c2.25,1.33,6.09,2.84,9.76,2.84,5.26,0,7.76-2.59,7.76-6.01s-2.09-5.42-7.42-7.42c-7.34-2.67-10.76-6.59-10.76-11.43,0-6.51,5.34-11.85,13.93-11.85,4.09,0,7.67,1.08,9.84,2.5l-1.75,5.26c-1.59-.92-4.5-2.34-8.26-2.34-4.34,0-6.67,2.5-6.67,5.51,0,3.42,2.34,4.92,7.59,6.92,6.92,2.59,10.6,6.09,10.6,12.18,0,7.17-5.59,12.18-15.02,12.18-4.42,0-8.51-1.17-11.35-2.84l1.75-5.51Z" style="fill:#0064ae;"/><path d="M335.13,118.12h.17c1-1.42,2.34-3.25,3.5-4.59l11.93-13.93h8.76l-15.6,16.6,17.77,23.78h-8.93l-13.85-19.44-3.75,4.25v15.18h-7.34v-59.23h7.34v37.37Z" style="fill:#0064ae;"/><path d="M396.78,130.3c0,3.5,.17,6.92,.58,9.68h-6.59l-.67-5.09h-.25c-2.17,3.17-6.59,6.01-12.35,6.01-8.18,0-12.35-5.76-12.35-11.6,0-9.76,8.68-15.1,24.28-15.02v-.83c0-3.34-.92-9.43-9.18-9.34-3.84,0-7.76,1.08-10.6,3l-1.67-4.92c3.34-2.09,8.26-3.5,13.35-3.5,12.43,0,15.43,8.43,15.43,16.52v15.1Zm-7.17-10.93c-8.01-.17-17.1,1.25-17.1,9.09,0,4.84,3.17,7.01,6.84,7.01,5.34,0,8.76-3.34,9.93-6.76,.25-.75,.33-1.58,.33-2.34v-7.01Z" style="fill:#0064ae;"/><path d="M408.54,112.78c0-5.17-.08-9.34-.33-13.18h6.59l.42,6.92h.17c2.92-5,7.76-7.84,14.27-7.84,9.84,0,17.19,8.26,17.19,20.52,0,14.52-8.93,21.69-18.35,21.69-5.42,0-10.01-2.34-12.43-6.34h-.17v21.94h-7.34v-43.71Zm7.34,10.76c0,1,.08,2.08,.33,3,1.25,5.09,5.76,8.59,10.93,8.59,7.76,0,12.26-6.34,12.26-15.6,0-8.09-4.17-15.02-11.93-15.02-5,0-9.76,3.5-11.18,9.01-.17,1-.42,2.09-.42,3v7.01Z" style="fill:#0064ae;"/><path d="M455.01,132.55c2.25,1.33,6.09,2.84,9.76,2.84,5.26,0,7.76-2.59,7.76-6.01s-2.09-5.42-7.42-7.42c-7.34-2.67-10.76-6.59-10.76-11.43,0-6.51,5.34-11.85,13.93-11.85,4.09,0,7.68,1.08,9.84,2.5l-1.75,5.26c-1.59-.92-4.5-2.34-8.26-2.34-4.34,0-6.67,2.5-6.67,5.51,0,3.42,2.34,4.92,7.59,6.92,6.92,2.59,10.6,6.09,10.6,12.18,0,7.17-5.59,12.18-15.02,12.18-4.42,0-8.51-1.17-11.35-2.84l1.75-5.51Z" style="fill:#0064ae;"/><path d="M489.13,112.19c0-4.75-.08-8.84-.33-12.6h6.42l.33,7.92h.25c1.84-5.42,6.34-8.84,11.26-8.84,.75,0,1.33,.08,2,.25v6.84c-.83-.08-1.58-.17-2.59-.17-5.17,0-8.84,3.92-9.84,9.34-.17,1.08-.25,2.25-.25,3.5v21.52h-7.34l.08-27.78Z" style="fill:#0064ae;"/><path d="M519.99,121.04c.17,9.93,6.42,14.02,13.77,14.02,5.26,0,8.51-.92,11.18-2l1.33,5.17c-2.59,1.17-7.09,2.59-13.51,2.59-12.35,0-19.86-8.26-19.86-20.36s7.26-21.86,19.02-21.86c13.18,0,16.6,11.6,16.6,19.02,0,1.5-.08,2.67-.25,3.5l-28.28-.08Zm21.44-5.26c.08-4.59-1.92-11.93-10.09-11.93-7.51,0-10.68,6.84-11.26,11.93h21.36Z" style="fill:#0064ae;"/><path d="M592.16,134.05c0,9.34-1.92,14.93-5.76,18.52-4,3.59-9.68,4.84-14.77,4.84s-10.18-1.17-13.43-3.34l1.84-5.67c2.67,1.75,6.84,3.25,11.85,3.25,7.51,0,13.01-3.92,13.01-14.18v-4.42h-.17c-2.17,3.75-6.59,6.76-12.85,6.76-10.01,0-17.19-8.51-17.19-19.77,0-13.68,8.93-21.36,18.27-21.36,7.01,0,10.76,3.59,12.6,6.92h.17l.25-6.01h6.51c-.25,2.84-.33,6.09-.33,11.01v23.44Zm-7.34-18.6c0-1.17-.08-2.25-.42-3.25-1.33-4.34-4.84-7.84-10.26-7.84-7.01,0-12.01,5.92-12.01,15.35,0,7.84,4.09,14.52,11.93,14.52,4.59,0,8.68-2.84,10.18-7.59,.42-1.17,.58-2.59,.58-3.92v-7.26Z" style="fill:#0064ae;"/><path d="M608.42,121.04c.17,9.93,6.42,14.02,13.77,14.02,5.25,0,8.51-.92,11.18-2l1.33,5.17c-2.59,1.17-7.09,2.59-13.52,2.59-12.35,0-19.85-8.26-19.85-20.36s7.26-21.86,19.02-21.86c13.18,0,16.6,11.6,16.6,19.02,0,1.5-.08,2.67-.25,3.5l-28.28-.08Zm21.44-5.26c.08-4.59-1.92-11.93-10.09-11.93-7.51,0-10.68,6.84-11.26,11.93h21.36Z" style="fill:#0064ae;"/><path d="M646.13,112.19c0-4.75-.08-8.84-.33-12.6h6.42l.33,7.92h.25c1.83-5.42,6.34-8.84,11.26-8.84,.75,0,1.33,.08,2,.25v6.84c-.83-.08-1.58-.17-2.59-.17-5.17,0-8.84,3.92-9.84,9.34-.17,1.08-.25,2.25-.25,3.5v21.52h-7.34l.08-27.78Z" style="fill:#0064ae;"/><path d="M677.16,92.17c-2.75,0-4.59-2.17-4.59-4.76s1.92-4.67,4.75-4.67,4.67,2.09,4.67,4.67-1.84,4.76-4.75,4.76h-.08Zm-3.5,47.8v-40.38h7.34v40.38h-7.34Z" style="fill:#0064ae;"/><path d="M693.18,110.53c0-4.25-.08-7.59-.33-10.93h6.51l.42,6.59h.17c2-3.75,6.67-7.51,13.35-7.51,5.59,0,14.27,3.34,14.27,17.19v24.11h-7.34v-23.28c0-6.51-2.42-12.01-9.34-12.01-4.75,0-8.51,3.42-9.84,7.51-.33,.92-.5,2.25-.5,3.42v24.36h-7.34v-29.45Z" style="fill:#0064ae;"/><path d="M774.02,134.05c0,9.34-1.92,14.93-5.76,18.52-4,3.59-9.68,4.84-14.77,4.84s-10.18-1.17-13.43-3.34l1.84-5.67c2.67,1.75,6.84,3.25,11.85,3.25,7.51,0,13.01-3.92,13.01-14.18v-4.42h-.17c-2.17,3.75-6.59,6.76-12.85,6.76-10.01,0-17.19-8.51-17.19-19.77,0-13.68,8.93-21.36,18.27-21.36,7.01,0,10.76,3.59,12.6,6.92h.17l.25-6.01h6.51c-.25,2.84-.33,6.09-.33,11.01v23.44Zm-7.34-18.6c0-1.17-.08-2.25-.42-3.25-1.33-4.34-4.84-7.84-10.26-7.84-7.01,0-12.01,5.92-12.01,15.35,0,7.84,4.09,14.52,11.93,14.52,4.59,0,8.68-2.84,10.18-7.59,.42-1.17,.58-2.59,.58-3.92v-7.26Z" style="fill:#0064ae;"/><path d="M155.42,57.15l-5.76,17.69h-7.51l18.77-55.39c-2.5-.92-4.09-3.34-4.09-6.09,0-4.25,3.42-7.84,9.01-7.84s8.93,3.34,8.93,7.84c0,2.92-1.84,5.34-4.51,6.26l18.85,55.23h-7.76l-6.01-17.69h-19.94Zm18.44-5.67l-5.67-16.52c-1-2.92-2-6.76-2.84-9.84h-.17c-.5,2.5-1.5,6.01-2.42,8.93l-5.92,17.44h17.02Zm-8.18-42.88c-2.84,0-4.34,2.17-4.34,4.67,0,2.25,1.67,4.42,4.42,4.42s4.5-2,4.5-4.5-1.67-4.59-4.5-4.59h-.08Z" style="fill:#0064ae;"/><path d="M197.05,15.6h7.34v59.23h-7.34V15.6Z" style="fill:#0064ae;"/><path d="M245.02,65.16c0,3.5,.17,6.92,.58,9.68h-6.59l-.67-5.09h-.25c-2.17,3.17-6.59,6.01-12.35,6.01-8.18,0-12.35-5.76-12.35-11.6,0-9.76,8.68-15.1,24.28-15.02v-.83c0-3.34-.92-9.43-9.18-9.34-3.84,0-7.76,1.08-10.59,3l-1.67-4.92c3.34-2.08,8.26-3.5,13.35-3.5,12.43,0,15.43,8.43,15.43,16.52v15.1Zm-7.17-10.93c-8.01-.17-17.1,1.25-17.1,9.09,0,4.84,3.17,7.01,6.84,7.01,5.34,0,8.76-3.34,9.93-6.76,.25-.75,.33-1.58,.33-2.34v-7.01Z" style="fill:#0064ae;"/><path d="M256.78,45.39c0-4.25-.08-7.59-.33-10.93h6.51l.42,6.59h.17c2-3.75,6.67-7.51,13.35-7.51,5.59,0,14.27,3.34,14.27,17.19v24.11h-7.34v-23.28c0-6.51-2.42-12.01-9.34-12.01-4.76,0-8.51,3.42-9.84,7.51-.33,.92-.5,2.25-.5,3.42v24.36h-7.34v-29.45Z" style="fill:#0064ae;"/><path d="M337.95,15.6v48.8c0,3.59,.08,7.67,.33,10.43h-6.59l-.33-7.01h-.17c-2.25,4.5-7.09,7.93-13.68,7.93-9.76,0-17.35-8.26-17.35-20.52-.08-13.51,8.34-21.69,18.1-21.69,6.26,0,10.43,2.92,12.18,6.09h.17V15.6h7.34Zm-7.34,35.29c0-1-.08-2.17-.33-3.17-1.08-4.59-5.09-8.43-10.6-8.43-7.59,0-12.1,6.67-12.1,15.52,0,8.26,4.09,15.02,11.93,15.02,4.92,0,9.43-3.34,10.76-8.76,.25-1,.33-2,.33-3.17v-7.01Z" style="fill:#0064ae;"/><path d="M349.13,67.41c2.25,1.33,6.09,2.84,9.76,2.84,5.26,0,7.76-2.59,7.76-6.01s-2.09-5.42-7.42-7.42c-7.34-2.67-10.76-6.59-10.76-11.43,0-6.51,5.34-11.85,13.93-11.85,4.09,0,7.68,1.08,9.84,2.5l-1.75,5.26c-1.58-.92-4.5-2.34-8.26-2.34-4.34,0-6.67,2.5-6.67,5.51,0,3.42,2.34,4.92,7.59,6.92,6.92,2.59,10.59,6.09,10.59,12.18,0,7.17-5.59,12.18-15.02,12.18-4.42,0-8.51-1.17-11.35-2.84l1.75-5.51Z" style="fill:#0064ae;"/><g><polygon points="54.84 41.91 62.57 36.95 70.31 41.92 62.6 46.61 54.84 41.91 54.84 41.91 54.84 41.91" style="fill:#f33;"/><path d="M62.6,47.19l-8.69-5.26,8.66-5.56,8.67,5.57-8.64,5.25Zm-6.83-5.29l6.83,4.14,6.79-4.12-6.81-4.38-6.81,4.37Z" style="fill:#231f20;"/></g><g><polygon points="108.98 41.91 116.71 36.99 124.46 41.94 116.71 46.63 108.98 41.91 108.98 41.91 108.98 41.91" style="fill:#f33;"/><path d="M116.7,47.21l-8.65-5.28,8.65-5.51,8.68,5.54-8.68,5.25Zm-6.79-5.3l6.8,4.15,6.82-4.12-6.82-4.36-6.8,4.33Z" style="fill:#231f20;"/></g><g><path d="M89.98,37.98c4.03,0,7.31,1.74,7.31,3.87s-3.29,3.73-7.31,3.73-7.31-1.6-7.31-3.73,3.21-3.87,7.31-3.87h0Z" style="fill:#0064ae;"/><path d="M89.98,46.09c-4.46,0-7.81-1.82-7.81-4.23s3.36-4.38,7.81-4.38,7.81,1.92,7.81,4.38-3.36,4.23-7.81,4.23Zm0-7.61c-3.76,0-6.81,1.51-6.81,3.38s3.06,3.23,6.81,3.23,6.81-1.45,6.81-3.23-3.12-3.38-6.81-3.38Z" style="fill:#231f20;"/></g><g><path d="M34.75,37.98c4.03,0,7.31,1.74,7.31,3.87s-3.27,3.76-7.3,3.76-7.33-1.63-7.33-3.76,3.21-3.87,7.31-3.87h0Z" style="fill:#0064ae;"/><path d="M34.77,46.12c-4.46,0-7.83-1.83-7.83-4.26s3.36-4.38,7.81-4.38,7.81,1.92,7.81,4.38-3.35,4.26-7.8,4.26Zm-.02-7.64c-3.76,0-6.81,1.51-6.81,3.38s3.06,3.26,6.83,3.26,6.8-1.46,6.8-3.26-3.12-3.38-6.81-3.38Z" style="fill:#231f20;"/></g></svg>