<svg version="1.1" xmlns="http://www.w3.org/2000/svg" xmlns:xlink="http://www.w3.org/1999/xlink" x="0px" y="0px" viewBox="0 0 2347.4 434" style="enable-background:new 0 0 2347.4 434;" xml:space="preserve" width="2347.4"  height="434" >
<style type="text/css">
  .st0{fill:none;stroke:#555555;stroke-width:5;stroke-miterlimit:8;}
  .st1{fill:none;stroke:#555555;stroke-width:2.8787;stroke-miterlimit:8;}
  .st2{fill-rule:evenodd;clip-rule:evenodd;fill:#1D1D1B;}
  .st3{fill:none;stroke:#555555;stroke-miterlimit:8;}
  .st4{fill:none;stroke:#555555;stroke-width:5;stroke-linecap:round;stroke-miterlimit:8;}
  .st5{fill:none;stroke:#555555;stroke-width:5;stroke-linecap:round;stroke-linejoin:round;stroke-miterlimit:8;}
  .textinlogo { fill: #555;}
</style>
<g id="Lager_2">
</g>
<g id="Lager_1">
  <path class="st0" d="M275.2,298.1L275.2,298.1l0-184H8.2v184h0c0,0,0,0,0,0.1c0,73.7,59.8,133.5,133.5,133.5
    S275.2,371.9,275.2,298.1C275.2,298.2,275.2,298.2,275.2,298.1z" stroke="#555555" fill="none" stroke-width="5px"></path>
  <path class="st1" d="M141.7,302.9" stroke="#555555" fill="none" stroke-width="2.8787px"></path>
  <g>
    <g>
      <g>
        <g>
          <path d="M59.4,39c7.2,0,13,5.8,13,13c0,7.2-5.8,13-13,13s-13-5.8-13-13C46.4,44.8,52.3,39,59.4,39 M59.4,34
            c-9.9,0-18,8.1-18,18c0,9.9,8.1,18,18,18s18-8.1,18-18C77.5,42.1,69.4,34,59.4,34L59.4,34z"></path>
        </g>
        <g>
          <path d="M92.3,39c7.2,0,13,5.8,13,13c0,7.2-5.8,13-13,13s-13-5.8-13-13C79.3,44.8,85.2,39,92.3,39 M92.3,34
            c-9.9,0-18,8.1-18,18c0,9.9,8.1,18,18,18s18-8.1,18-18C110.4,42.1,102.3,34,92.3,34L92.3,34z"></path>
        </g>
        <g>
          <path d="M125.3,39c7.3,0,13.2,5.8,13.2,13c0,7.2-5.9,13-13.2,13C118,65,112,59.2,112,52C112,44.8,118,39,125.3,39 M125.3,34
            c-10,0-18.2,8.1-18.2,18c0,9.9,8.2,18,18.2,18s18.2-8.1,18.2-18C143.5,42.1,135.3,34,125.3,34L125.3,34z"></path>
        </g>
        <g>
          <path d="M158.2,39c7.3,0,13.2,5.8,13.2,13c0,7.2-5.9,13-13.2,13c-7.3,0-13.2-5.8-13.2-13C144.9,44.8,150.9,39,158.2,39
             M158.2,34c-10,0-18.2,8.1-18.2,18c0,9.9,8.2,18,18.2,18c10,0,18.2-8.1,18.2-18C176.4,42.1,168.2,34,158.2,34L158.2,34z"></path>
        </g>
        <g>
          <path d="M191.1,39c7.2,0,13,5.8,13,13c0,7.2-5.8,13-13,13s-13-5.8-13-13C178.1,44.8,183.9,39,191.1,39 M191.1,34
            c-9.9,0-18,8.1-18,18c0,9.9,8.1,18,18,18c9.9,0,18-8.1,18-18C209.1,42.1,201,34,191.1,34L191.1,34z"></path>
        </g>
        <g>
          <path d="M224,39c7.2,0,13,5.8,13,13c0,7.2-5.8,13-13,13c-7.2,0-13-5.8-13-13C211,44.8,216.8,39,224,39 M224,34
            c-9.9,0-18,8.1-18,18c0,9.9,8.1,18,18,18c9.9,0,18-8.1,18-18C242,42.1,233.9,34,224,34L224,34z"></path>
        </g>
        <g>
          <path d="M256.9,39c7.2,0,13,5.8,13,13c0,7.2-5.8,13-13,13s-13-5.8-13-13C243.9,44.8,249.7,39,256.9,39 M256.9,34
            c-9.9,0-18,8.1-18,18c0,9.9,8.1,18,18,18c9.9,0,18-8.1,18-18C274.9,42.1,266.8,34,256.9,34L256.9,34z"></path>
        </g>
        <g>
          <path d="M26.5,39c7.2,0,13,5.8,13,13c0,7.2-5.8,13-13,13c-7.2,0-13-5.8-13-13C13.5,44.8,19.3,39,26.5,39 M26.5,34
            c-9.9,0-18,8.1-18,18c0,9.9,8.1,18,18,18c9.9,0,18-8.1,18-18C44.5,42.1,36.5,34,26.5,34L26.5,34z"></path>
        </g>
      </g>
      <g>
        <g>
          <path d="M141.8,8.8c7.2,0,13,5.8,13,13c0,7.2-5.8,13-13,13s-13-5.8-13-13C128.8,14.7,134.6,8.8,141.8,8.8 M141.8,3.8
            c-9.9,0-18,8.1-18,18c0,9.9,8.1,18,18,18s18-8.1,18-18C159.8,11.9,151.7,3.8,141.8,3.8L141.8,3.8z"></path>
        </g>
        <g>
          <path d="M265.8,8.8c7.2,0,13,5.8,13,13c0,7.2-5.8,13-13,13c-7.2,0-13-5.8-13-13C252.8,14.7,258.6,8.8,265.8,8.8 M265.8,3.8
            c-9.9,0-18,8.1-18,18c0,9.9,8.1,18,18,18c9.9,0,18-8.1,18-18C283.8,11.9,275.7,3.8,265.8,3.8L265.8,3.8z"></path>
        </g>
        <g>
          <path d="M17.8,8.8c7.3,0,13.2,5.8,13.2,13c0,7.2-5.9,13-13.2,13c-7.3,0-13.2-5.8-13.2-13C4.6,14.7,10.5,8.8,17.8,8.8 M17.8,3.8
            c-10,0-18.2,8.1-18.2,18c0,9.9,8.2,18,18.2,18c10,0,18.2-8.1,18.2-18C36,11.9,27.9,3.8,17.8,3.8L17.8,3.8z"></path>
        </g>
      </g>
    </g>
  </g>
  <g class="textinlogo" fill="#555555">
    <path d="M496.4,299.4l-16.6-46.1h-63.4l-16.2,46.1h-28.6l62.1-166.6h29.5l62.1,166.6H496.4z M475.2,120.4c0,7.7-2.5,14-7.4,18.8
      c-5,4.8-11.5,7.2-19.7,7.2s-14.7-2.4-19.5-7.1c-4.8-4.7-7.3-11-7.3-18.7c0-7.6,2.4-13.8,7.2-18.6c4.8-4.7,11.3-7.1,19.6-7.1
      c7.9,0,14.4,2.3,19.5,7C472.6,106.7,475.2,112.8,475.2,120.4z M472.7,229.9l-15.5-45.2c-1.1-3-2.7-7.8-4.7-14.3
      c-2-6.5-3.4-11.3-4.1-14.3c-2,9.3-5,19.5-9,30.5l-15,43.2H472.7z M460.1,120.6c0-3.8-1.1-6.8-3.4-8.9s-5.1-3.2-8.6-3.2
      c-3.6,0-6.5,1.1-8.7,3.2s-3.4,5.1-3.4,8.9c0,8,4,12,12.1,12c3.5,0,6.4-1,8.6-3.1C458.9,127.4,460.1,124.5,460.1,120.6z" fill="#555555"></path>
    <path d="M547.1,299.4V133.4h27.1v142.7h70.3v23.3H547.1z" fill="#555555"></path>
    <path d="M776.1,299.4l-16.6-46.1H696l-16.2,46.1h-28.6l62.1-166.6h29.5l62.1,166.6H776.1z M752.3,229.9l-15.5-45.2
      c-1.1-3-2.7-7.8-4.7-14.3c-2-6.5-3.4-11.3-4.1-14.3c-2,9.3-5,19.5-9,30.5l-15,43.2H752.3z" fill="#555555"></path>
    <path d="M965,299.4h-33.3l-81.6-132.2h-0.9l0.6,7.4c1.1,14.1,1.6,26.9,1.6,38.6v86.3h-24.6V133.4h32.9L941.1,265h0.7
      c-0.2-1.7-0.5-8.1-0.9-19c-0.5-10.9-0.7-19.5-0.7-25.6v-86.9H965V299.4z" fill="#555555"></path>
    <path d="M1143.8,214.8c0,27.4-7.6,48.3-22.8,62.8c-15.2,14.5-37.1,21.7-65.7,21.7h-46.4V133.4h51.3c26.4,0,46.9,7.1,61.6,21.3
      C1136.4,169,1143.8,189,1143.8,214.8z M1115.2,215.7c0-39.7-18.6-59.6-55.7-59.6H1036v120.4h19.3
      C1095.2,276.5,1115.2,256.3,1115.2,215.7z" fill="#555555"></path>
    <path d="M1275.1,254.3c0,14.8-5.3,26.3-16,34.7c-10.7,8.4-25.4,12.6-44.2,12.6s-34.1-2.9-46.1-8.7v-25.7
      c7.6,3.6,15.6,6.4,24.1,8.4s16.4,3.1,23.8,3.1c10.7,0,18.7-2,23.8-6.1s7.7-9.6,7.7-16.5c0-6.2-2.3-11.5-7-15.8
      c-4.7-4.3-14.4-9.4-29.1-15.3c-15.1-6.1-25.8-13.1-32-21c-6.2-7.9-9.3-17.3-9.3-28.4c0-13.8,4.9-24.7,14.8-32.7
      c9.8-7.9,23-11.9,39.6-11.9c15.9,0,31.7,3.5,47.4,10.4l-8.6,22.1c-14.8-6.2-27.9-9.3-39.5-9.3c-8.8,0-15.4,1.9-20,5.7
      c-4.5,3.8-6.8,8.9-6.8,15.2c0,4.3,0.9,8,2.7,11.1s4.8,6,9,8.7c4.2,2.7,11.7,6.3,22.5,10.8c12.2,5.1,21.1,9.8,26.8,14.2
      c5.7,4.4,9.8,9.3,12.5,14.9C1273.8,240.3,1275.1,246.8,1275.1,254.3z" fill="#555555"></path>
    <path d="M1367.6,299.4V133.4h27.1v142.7h70.3v23.3H1367.6z" fill="#555555"></path>
    <path d="M1596.5,299.4l-16.6-46.1h-63.4l-16.2,46.1h-28.6l62.1-166.6h29.5l62.1,166.6H1596.5z M1572.8,229.9l-15.5-45.2
      c-1.1-3-2.7-7.8-4.7-14.3c-2-6.5-3.4-11.3-4.1-14.3c-2,9.3-5,19.5-9,30.5l-15,43.2H1572.8z" fill="#555555"></path>
    <path d="M1715.1,209.3h61.1v83.3c-10,3.3-19.6,5.6-28.8,6.9c-9.2,1.4-19.1,2-29.8,2c-25.1,0-44.5-7.4-58.1-22.3
      c-13.6-14.9-20.4-35.8-20.4-62.9c0-26.7,7.7-47.6,23-62.7c15.4-15.1,36.5-22.6,63.4-22.6c17.3,0,33.7,3.3,49.3,10l-9.5,22.6
      c-13.5-6.2-26.9-9.3-40.4-9.3c-17.7,0-31.7,5.6-42,16.7c-10.3,11.1-15.4,26.3-15.4,45.6c0,20.3,4.6,35.7,13.9,46.3
      c9.3,10.6,22.6,15.8,40,15.8c8.8,0,18.2-1.1,28.1-3.3v-42.8h-34.4V209.3z" fill="#555555"></path>
    <path d="M1873.3,299.4h-27.1V156.7h-48.8v-23.3h124.7v23.3h-48.8V299.4z" fill="#555555"></path>
    <path d="M1947.6,299.4V133.4h27.1v165.9H1947.6z" fill="#555555"></path>
    <path d="M2156.7,299.4h-33.3l-81.6-132.2h-0.9l0.6,7.4c1.1,14.1,1.6,26.9,1.6,38.6v86.3h-24.6V133.4h32.9l81.4,131.5h0.7
      c-0.2-1.7-0.5-8.1-0.9-19c-0.5-10.9-0.7-19.5-0.7-25.6v-86.9h24.9V299.4z" fill="#555555"></path>
    <path d="M2268.4,209.3h61.1v83.3c-10,3.3-19.6,5.6-28.8,6.9c-9.2,1.4-19.1,2-29.8,2c-25.1,0-44.5-7.4-58.1-22.3
      c-13.6-14.9-20.4-35.8-20.4-62.9c0-26.7,7.7-47.6,23-62.7c15.4-15.1,36.5-22.6,63.4-22.6c17.3,0,33.7,3.3,49.3,10l-9.5,22.6
      c-13.5-6.2-26.9-9.3-40.4-9.3c-17.7,0-31.7,5.6-42,16.7c-10.3,11.1-15.4,26.3-15.4,45.6c0,20.3,4.6,35.7,13.9,46.3
      c9.3,10.6,22.6,15.8,40,15.8c8.8,0,18.2-1.1,28.1-3.3v-42.8h-34.4V209.3z" fill="#555555"></path>
  </g>
  <g>
    <g>
      <g>
        <path class="st2" d="M257.2,152.1c0-0.4,0-0.7,0-1.1c-0.1-0.2-0.2-0.4-0.3-0.6c-21.3-4.9-22.8,6.4-31.4,17.9
          c-1.6,2.2-5.6,4.6-7.8,1.4c-0.2-0.2-0.4-0.4-0.6-0.6c3.5-6.8,10.6-9.6,12.3-18.2c-0.3-3.1-0.6-6.2-0.8-9.2
          c-2.4-0.6-4.1,0.9-5.9,1.7c-5.4,2.3-9.7,5.4-12.6,10.1c-3.1,5-5.8,17.3-15.4,14.3c-4.4-1.4-6.5-7.7-3.6-12.3
          c3.4-5.6,13-10.4,18.8-13.7c0-0.5,0-0.9,0-1.4c-3.2-0.8-8.7-0.3-11.5,0.3c-5.9,1.2-10.1,1.8-14,4.8c-6.5,4.8-9.3,14-17.9,16.8
          c3.1-7.3,8.6-15.6,14.6-20.2c-0.1-0.6-0.2-1.1-0.3-1.7c-12.4-3.2-22.3,7.9-25.5,16c-0.3,0.2-0.6,0.4-0.8,0.6
          c3.1-8,5.8-14.3,12.3-18.8c0-0.5,0-0.9,0-1.4c-15.4-4.3-22.4,9.8-26,18.8c-0.4,0.3-0.7,0.6-1.1,0.8c0-0.5,0-0.9,0-1.4
          c-8.7-2.2-9.8-8.9-9.5-19c-0.7-0.1-1.3-0.2-2-0.3c-5.6,4.2-8.9,5-8.7,15.4c-3.5-2.6-5.2-8.7-5.6-14.3c-0.5-0.1-0.9-0.2-1.4-0.3
          c-7.4,4.7-7.8,15.4-3.6,23.5c-3.4,0.1-6.7,0.2-10.1,0.3c-4.9,1.3-9.9,2.6-14.8,3.9c-11.9,2.1-20-3.2-25.2,6.4
          c-1.2,2.2-1.8,4.8-0.6,7.6c3,0.8,6.4,1.8,10.1,2c-5.8,2.4-11-0.3-15.7-1.1c-0.1,0-0.2,0-0.3,0c-2.5,9.7,6.5,10.9,12.5,11.9
          c2.4,0.4,1.8,3.7,4.9,4.3c5.4,1.1,9.4-2.1,14.3-0.8c1.6,1,3.2,2.1,4.8,3.1c-3.2,1.7-6.3,3.4-9.5,5c-4.5,3.4-7.1,9.1-11.5,12.3
          c-2.8,2.1-6.5,2.5-9.8,4.2c-0.3,0.2-0.6,0.4-0.8,0.6c0,0.4,0,0.7,0,1.1c2.2,1.6,4.5,3.2,7.6,3.9c-2.5,3.3-7.8,7.6-12.9,8.1
          c-0.5,0.9-0.6,1.9-0.3,3.1c0.7,1.8,2.6,2,4.2,2.8c-2.3,4.5-4.7,10.1-4.8,16.5c1.5,0.4,2.4,0,3.6-0.6c-1.2,3.3-1.5,9-0.8,13.2
          c2.2,0.5,3.8-1,5.3-2c-0.1,6.2,0.6,11.6,1.4,16.8c-9.9,2.1-27.9,3-32.5,10.6c-5.6,9.3,4.3,18.5,7,23.8
          c10.5,20.6,10.4,37.1,42.6,37c1.4-5.8-4.7-14.2-8.7-16c-0.2-0.3-0.4-0.6-0.6-0.8c0.8-0.5,1.7-0.9,2.5-1.4c0-0.4,0-0.7,0-1.1
          c-4.1-2-8.2-3.9-12.3-5.9c-4-3.1-6.8-15.4-7.8-21c9.2,1.6,22,4.2,31.6,0.8c0.9,2.1,1.9,4.1,2.8,6.2c-0.4,3-0.7,6-1.1,9
          c0.6,2.9,2.5,5.2,3.4,7.6c2.5,6.9,4.2,28.2,1.7,36.7c-1.8,2.2-3.5,4.5-5.3,6.7c-2.7,4.2-6.4,11.3-6.7,17.1
          c14.5,5.6,17.5-3.8,23.8-10.4c0.4-0.7,5.3,3.4,7.6,3.6c3.1-8.6-1.8-18.3-3.4-25.8c-2.2-10.5,1.5-37.5,5-44.5
          c1.4-1.2,12.2-1.1,14.8-1.7c8.2-1.8,16-5.5,23-8.7c0.7,9.9,6.2,16.4,12.3,21c3.5,2.6,11.2,4,9.8,11.2c-0.9,4.9-4.2,8.4-6.7,11.8
          c-3.5,4.7-6.7,10.6-11.2,14.3c-9.6,7.7-19.4,14.9-19.3,32.2c8,2.1,18.3-5.8,20.2-11.2c0.2-0.1,0.4-0.2,0.6-0.3
          c1.3,1.4,2.6,2.8,3.9,4.2c1-0.2,2.1-0.4,3.1-0.6c0.9-4,1.9-8,2.8-12c4.9-13.4,18.6-30.5,31.6-35.6c2-6.3,1.7-13.9-0.3-19.3
          c4.3,2.6,8.6,5.2,12.9,7.8c8.9,6.8,4.4,16.1-0.8,23.2c-10.3,14-31,19.6-31.4,43.1c8.2,2.2,22.2-6.8,24.1-12
          c0.2-0.1,0.4-0.2,0.6-0.3c1,1.2,2.1,2.4,3.1,3.6c0.4,0,0.7,0,1.1,0c2.3-1.9,3.1-5.6,4.5-8.4c3.4-5.9,6.7-11.8,10.1-17.6
          c3.2-3.6,6.3-7.3,9.5-10.9c1.9-1.5,3.7-3,5.6-4.5c1.1-2.3,2.5-15.6,2-17.9c-3-0.7-7.1-1.8-8.4-4.2c-2.1-4-0.2-11.3,0.6-15.4
          c2-11.2,1.4-23.7,0.8-35.3c8.2,4,13.6-2.2,18.2-5.9c0-0.5,0-0.9,0-1.4c-0.8-0.2-1.7-0.4-2.5-0.6c2.6-3.3,5-7.7,5-13.4
          c-0.5-0.1-0.9-0.2-1.4-0.3c-3.1,2.3-5.7,5.7-9.8,7c-7.7,2.4-23.5-9.6-32.5-11.5c-10.2-2.1-27.8,0.9-38.1,1.4
          c0.6-1.1,1.1-2.2,1.7-3.4c0-0.1,0-0.2,0-0.3c-3.2-0.9-8.5-0.3-11.2,0.6c-0.1,0-0.2,0-0.3,0c0.1-1.3,0.2-2.6,0.3-3.9
          c-5.4-1.5-10.7,1-14.3,2.5c-0.1,0-0.2,0-0.3,0c0.4-2,0.7-3.9,1.1-5.9c-7.5-1.7-11.2,4.7-19.6,2c-0.2-0.3-0.4-0.6-0.6-0.8
          c2.8-0.1,5.6-0.2,8.4-0.3c0.1-0.1,0.2-0.2,0.3-0.3c-0.7-2.7-1.3-5.4-2-8.1c4.4-0.2,7.8-1.4,10.9-2.8c0-0.4,0-0.7,0-1.1
          c-2.1-2.8-3.3-4.6-4.8-8.4c5.6,0,7.5-1.7,10.6-3.9c0-0.4,0-0.7,0-1.1c-3.2-3-6.7-3.1-9-7.3c4.9-3.1,8-2.4,10.6-7.8
          c-0.1-0.7-0.2-1.3-0.3-2c-2.3-0.6-4.7-1.1-7-1.7c0-0.1,0-0.2,0-0.3c1.6-2.4,3.1-4.6,3.6-8.1c19.2,12.2,47.7,44.9,81.5,30.2
          c11.2-4.8,18.6-15.2,28.3-21.8c0-0.4,0-0.7,0-1.1c-14.7-14.2-30.4,15.3-38.1,12.9c-0.7-5.8,7.3-7.8,10.9-10.4
          c5.4-3.7,9.2-8.7,9.2-17.9c-1.9-0.5-3.3,0.2-4.8,0.8C239.8,168.2,248,158.5,257.2,152.1z M174.9,162.2c4.2-3.3,6.3-8.8,10.4-12
          c3.2-2.6,7-3.3,10.9-5.3c0.3,0,0.6,0,0.8,0c-3.3,3-6.5,6-9.8,9c-4.3,7,0.2,15.9,5.9,17.6c0,0.1,0,0.2,0,0.3
          c-1.7,1.6-3.4,3.2-5,4.8c-0.2,0.2-19.3-3.6-23.8-3.6c-0.4-1.9,0-3.7,0.6-5.3C165.5,166.4,173.2,163.5,174.9,162.2z M185.8,180.7
          c0,0.1,0,0.2,0,0.3c-5.3,8.1-19.5,6.5-21-4.2C170.7,178.4,180.2,179.9,185.8,180.7z M145.2,156.6c1.8-3.6,3.5-7.3,5.3-10.9
          c1.5-2.1,4.4-2.9,6.4-4.5c-0.3,0.7-0.6,1.3-0.8,2c-3,4.8-6.7,10.7-5.6,18.5c-3.5,2.6-6.6,4-12.6,3.6c-0.1-0.2-0.2-0.4-0.3-0.6
          C139.7,162.6,143.7,158.8,145.2,156.6z M125.6,142c2.4,2.6,1,9.3,5,12.9c-1.5,0.7-3,1.3-4.5,2C124,152,122.3,146.8,125.6,142z
           M110.8,144.8c1.1,2.3,2.2,4.7,3.4,7c2.7,2.3,5.4,4.7,8.1,7c0.2,0,0.4,0,0.6,0c-2.5,3.4-3.4,2.4-8.1,2
          C112,156.3,108.7,151.9,110.8,144.8z M57.3,185.8c-0.8-0.4-1.7-2.5-1.8-2.6c3,0.8,8.6,1.3,10.4,0.4c0.7,0.1,2.3,0.2,2.6,1.6
          C65.5,188.1,60.8,187.9,57.3,185.8z M78.6,305.2c-12.3,4-24.4-2.7-35-3.1c-0.1,0.2-0.2,0.4-0.3,0.6c1.5,3.1,3,6.2,4.5,9.2
          c4.1,10.6,3.3,20.1,14.6,23.5c-0.9,0.6-1.9,1.1-2.8,1.7c-0.2,0.7-0.4,1.3-0.6,2c8.2,2.2,10.5,3.8,13.7,10.6c0,0.1,0,0.2,0,0.3
          c-23.9,0.1-26.6-20.7-34.7-36.1c-2.4-4.6-11-12.6-5.6-19.6c3.8-5.1,21.9-4.4,28.6-7.6c0.4,0,0.7,0,1.1,0
          c2.4,7.8,9.9,14.5,16.5,18.2C78.6,305.1,78.6,305.2,78.6,305.2z M191.4,336c-3.9,2.8-7.8,5.6-11.8,8.4
          c-9.9,7.8-20.2,21.9-22.4,37c-1.4-1.9-2.8-3.7-4.2-5.6c-0.5,0-0.9,0-1.4,0c-4,7.7-5.9,11.3-14.3,14.6c1.5-4.8,2.1-9.3,4.5-13.2
          c2.8-4.6,8.4-7.8,12.6-11.2c4.3-3.5,7.4-8.6,10.6-13.2c3.5-5,10.8-10.7,8.7-20.7c-1.3-6.4-8.7-8.1-13.2-11.5
          c-4.9-3.7-8.2-10.5-9-18.2c3.9-2,8.1-2.6,12.6-4.5c2.2,0.2,4.5,0.4,6.7,0.6c0.6,1.6,1.1,3.2,1.7,4.8c3.8,6,10.8,12,17.9,14.6
          c-0.1,4,1,4.6,1.7,7.3C192,328.8,191.7,332.4,191.4,336z M144.1,197.2c0,0.1,0,0.2,0,0.3c-2.8,1.2-5.2,2.7-9.2,2.8
          c-1.4,4.9,2,10.3,5.3,11.5c0.1,0.2,0.2,0.4,0.3,0.6c-2.2,0.2-4.5,0.4-6.7,0.6c-2.4,1.8,0.8,8.8,1.7,10.6
          c-0.1,0.2-0.2,0.4-0.3,0.6c-2.5,0.3-5,0.6-7.6,0.8c-0.7,2.7,0.1,5.9,0.3,8.4c-2.6-0.3-5.2-0.6-7.8-0.8
          c-3.9,13.1,12.4,11.7,19.3,8.7c-0.6,2.1-1.1,4.1-1.7,6.2c5.7,1.4,10.4-2.9,15.7-3.6c-0.9,1.8-2,3.2-2.2,5.6
          c3.4,0.7,8-1.7,11.8-2.2c-0.6,1.2-1.1,2-1.1,3.9c13.5-0.6,27.6-3,40.6-1.7c3.2,0.7,6.6,2.1,9.8,2.7c8.1,3.3,17.8,13.1,29.9,7.6
          c-0.9,2.2-5,4.3-7.3,5c-0.2,0.7-0.4,1.3-0.6,2c1.4,0.1,2.8,0.2,4.2,0.3c0,0.1,0,0.2,0,0.3c-8.3,2.8-14.4-4-18.5-9.5
          c-0.5,0-0.9,0-1.4,0c-0.1,0.2-0.2,0.4-0.3,0.6c0.4,3.8,3,5.5,4.2,8.4c1.5,3.6,2.4,7.5,3.1,11.8c2.6,15.7-11.4,48,5.9,51
          c-0.5,16.1-9.7,18.4-16.5,28c-4.6,6.4-6.9,14.9-11.8,21.3c0,0.2,0,0.4,0,0.6c-1.1-1.8-2.2-3.5-3.4-5.3c-0.4,0-0.7,0-1.1,0
          c-0.7,1.9-1.5,3.7-2.2,5.6c-3.2,5.4-9.6,8.7-16.2,10.6c1.6-16.5,21.3-25.1,30-37c2.6-3.5,8.2-9.5,7-16.2
          c-2.9-16.3-27-21.8-37.8-31.4c-6.3-5.5-5.6-15.7-5.6-26.3c-1.2-0.2-2.4-0.4-3.6-0.6c-1.1,3.8-1.4,11-0.3,14.8c0,0.3,0,0.6,0,0.8
          c-13.6-1.5-21,5.3-30,9.2c-8.1,3.5-17.7,6.8-29.1,6.7c0.5-4,0.9-8,1.4-12c-1.2-0.1-2.4-0.2-3.6-0.3c-0.6,3.9-1.1,7.8-1.7,11.8
          c-3,12.8-9,28-6.4,44.8c1.4,9.1,3.6,15.9,4.8,24.1c-2-1.2-3.3-3.2-5.9-3.6c-5.9,6.2-4.7,14.6-17.4,13.7
          c1.8-3.9,3.5-7.8,5.3-11.8c1.8-2.1,3.5-4.1,5.3-6.2c2.2-4.9,1.5-22.5,0.6-28.3c-0.8-5-0.9-9-2.2-13.2c-0.9-2.1-1.9-4.1-2.8-6.2
          c-0.8-3.7,2.1-6.1,1.4-9c-1.2-2.2-2.4-4.5-3.6-6.7c-1.9-4.6-2.9-10.4-3.4-16c-1.2-0.1-2.4-0.2-3.6-0.3c-0.7,2.5,0.1,7,0.8,9.2
          c-14.2-6.2-17-21.4-16.2-41.4c-0.1-0.1-0.2-0.2-0.3-0.3c-2.7,0.3-3.9,1.6-5.6,2.8c-0.1,0-0.2,0-0.3,0c0.9-3.9,1.9-7.8,2.8-11.8
          c-1.4-0.4-3-0.2-4.2,0.3c1.3-3.6,5.3-11.4,5.6-14c-1-0.3-2.1-0.6-3.1-0.8c0-0.1,0-0.2,0-0.3c4.7-3.8,8.8-7.5,13.2-11.5
          c0-0.5,0-0.9,0-1.4c-1.9-0.5-3.7-0.9-5.6-1.4c2.1-1.5,4.1-3,6.2-4.5c5-4.2,7.8-9.4,13.7-12.9c4.6-2.7,11.1-2.8,16.2-5.3
          c0.3-0.1,0.6-0.2,0.8-0.3c0-0.5,0-0.9,0-1.4c-3.7-0.7-7.5-1.3-11.2-2c-2.3-1.4-4.7-2.8-7-4.2c-5.6-1.4-12,3.1-15.7,0
          c-0.2-0.1-0.4-0.2-0.6-0.3c4-1.2,8.8-8.6,3.9-12.3c-2.4-1.8-7.1-2.2-10.9-2.5c0-0.3,0-0.6,0-0.8c4.4-9.1,9.5-4.2,20.4-5.9
          c6.9-1.5,13.8-3,20.7-4.5c7.3-1.2,13.3,2.1,19.3,2.5c2.6-4.2,7.1-7.2,13.4-7.6c-1.1,6.6-6.7,6.9-8.4,10.6
          c-2.2,4.9,5.5,8.8,9.8,9c-2.3,4-4.1,8.5,3.9,8.1c0,0.1,0,0.2,0,0.3c-1.2,2.4-3.2,4.5-5.9,5.3c-0.2,0.7-0.4,1.3-0.6,2
          C137.6,195.1,140.8,196.2,144.1,197.2z M233.4,180.9c-3.6,10.9-16.6,11-20.2,21.6c0,3.9,1.8,5.5,4.5,6.7
          c14.5-0.6,14.9-17,30.8-16.5c-1.9,1.5-3.7,3-5.6,4.5c-13.8,11.1-25.9,23.5-50.7,13.2c-11-4.6-19.5-12.4-28.6-19
          c-3.6-2.6-21.5-13-21.8-16.5c-2.8-0.7-6.6,0-8.7-1.4c-0.5-0.7-0.9-1.3-1.4-2c0.9-0.9,1.9-1.9,2.8-2.8
          c17.3,2.8,21.2-7.1,28.6-16.5c2.6-3.3,6-5,9.2-7.6c1.1,0.7-5,6.8-5.9,8.1c-4.5,6.7-10,22-3.9,31.6c3.4,5.4,15.9,8.3,22.7,3.6
          c7.4-5.1,6.7-15.6,19.9-14.8c-4.2,5.4-18.3,16.8-12.9,27.2c1.3,2.5,3.1,4.6,6.2,5.3c9.3,2.1,13.1-8.8,16.5-13.2
          C219.3,186.7,226.2,183.9,233.4,180.9z M200.9,184.3c4.3,1.1,8.6,1.8,14.3,1.7c-2.8,3.8-10.2,15-15.1,15.7
          C191.7,197.2,196.8,189.7,200.9,184.3z M204.3,180.9c0.9-3,4.9-6.4,7.3-8.1c0-0.4,0-0.7,0-1.1c-1.3-1.4-3.9-2.2-6.2-2.5
          c1.6-1.8,3.2-3.5,4.8-5.3c1.6-3.4,3.2-6.7,4.8-10.1c2.3-3.3,6.3-4.8,9.8-7c1.8,2.1-0.4,7.3-1.4,8.7c-3.7,5.3-12,8.1-9.2,17.4
          c14.2,9.5,17.9-12.2,26-17.6c2.3-1.5,5.8-2,9.2-2.2c-3.4,3.3-6.7,6.5-10.1,9.8C229.7,174.9,225.5,183.4,204.3,180.9z" fill="#1D1D1B"></path>
      </g>
      <g>
        <path class="st3" d="M257.2,152.1c0-0.4,0-0.7,0-1.1c-0.1-0.2-0.2-0.4-0.3-0.6c-21.3-4.9-22.8,6.4-31.4,17.9
          c-1.6,2.2-5.6,4.6-7.8,1.4c-0.2-0.2-0.4-0.4-0.6-0.6c3.5-6.8,10.6-9.6,12.3-18.2c-0.3-3.1-0.6-6.2-0.8-9.2
          c-2.4-0.6-4.1,0.9-5.9,1.7c-5.4,2.3-9.7,5.4-12.6,10.1c-3.1,5-5.8,17.3-15.4,14.3c-4.4-1.4-6.5-7.7-3.6-12.3
          c3.4-5.6,13-10.4,18.8-13.7c0-0.5,0-0.9,0-1.4c-3.2-0.8-8.7-0.3-11.5,0.3c-5.9,1.2-10.1,1.8-14,4.8c-6.5,4.8-9.3,14-17.9,16.8
          c3.1-7.3,8.6-15.6,14.6-20.2c-0.1-0.6-0.2-1.1-0.3-1.7c-12.4-3.2-22.3,7.9-25.5,16c-0.3,0.2-0.6,0.4-0.8,0.6
          c3.1-8,5.8-14.3,12.3-18.8c0-0.5,0-0.9,0-1.4c-15.4-4.3-22.4,9.8-26,18.8c-0.4,0.3-0.7,0.6-1.1,0.8c0-0.5,0-0.9,0-1.4
          c-8.7-2.2-9.8-8.9-9.5-19c-0.7-0.1-1.3-0.2-2-0.3c-5.6,4.2-8.9,5-8.7,15.4c-3.5-2.6-5.2-8.7-5.6-14.3c-0.5-0.1-0.9-0.2-1.4-0.3
          c-7.4,4.7-7.8,15.4-3.6,23.5c-3.4,0.1-6.7,0.2-10.1,0.3c-4.9,1.3-9.9,2.6-14.8,3.9c-11.9,2.1-20-3.2-25.2,6.4
          c-1.2,2.2-1.8,4.8-0.6,7.6c3,0.8,6.4,1.8,10.1,2c-5.8,2.4-11-0.3-15.7-1.1c-0.1,0-0.2,0-0.3,0c-2.5,9.7,6.5,10.9,12.5,11.9
          c2.4,0.4,1.8,3.7,4.9,4.3c5.4,1.1,9.4-2.1,14.3-0.8c1.6,1,3.2,2.1,4.8,3.1c-3.2,1.7-6.3,3.4-9.5,5c-4.5,3.4-7.1,9.1-11.5,12.3
          c-2.8,2.1-6.5,2.5-9.8,4.2c-0.3,0.2-0.6,0.4-0.8,0.6c0,0.4,0,0.7,0,1.1c2.2,1.6,4.5,3.2,7.6,3.9c-2.5,3.3-7.8,7.6-12.9,8.1
          c-0.5,0.9-0.6,1.9-0.3,3.1c0.7,1.8,2.6,2,4.2,2.8c-2.3,4.5-4.7,10.1-4.8,16.5c1.5,0.4,2.4,0,3.6-0.6c-1.2,3.3-1.5,9-0.8,13.2
          c2.2,0.5,3.8-1,5.3-2c-0.1,6.2,0.6,11.6,1.4,16.8c-9.9,2.1-27.9,3-32.5,10.6c-5.6,9.3,4.3,18.5,7,23.8
          c10.5,20.6,10.4,37.1,42.6,37c1.4-5.8-4.7-14.2-8.7-16c-0.2-0.3-0.4-0.6-0.6-0.8c0.8-0.5,1.7-0.9,2.5-1.4c0-0.4,0-0.7,0-1.1
          c-4.1-2-8.2-3.9-12.3-5.9c-4-3.1-6.8-15.4-7.8-21c9.2,1.6,22,4.2,31.6,0.8c0.9,2.1,1.9,4.1,2.8,6.2c-0.4,3-0.7,6-1.1,9
          c0.6,2.9,2.5,5.2,3.4,7.6c2.5,6.9,4.2,28.2,1.7,36.7c-1.8,2.2-3.5,4.5-5.3,6.7c-2.7,4.2-6.4,11.3-6.7,17.1
          c14.5,5.6,17.5-3.8,23.8-10.4c0.4-0.7,5.3,3.4,7.6,3.6c3.1-8.6-1.8-18.3-3.4-25.8c-2.2-10.5,1.5-37.5,5-44.5
          c1.4-1.2,12.2-1.1,14.8-1.7c8.2-1.8,16-5.5,23-8.7c0.7,9.9,6.2,16.4,12.3,21c3.5,2.6,11.2,4,9.8,11.2c-0.9,4.9-4.2,8.4-6.7,11.8
          c-3.5,4.7-6.7,10.6-11.2,14.3c-9.6,7.7-19.4,14.9-19.3,32.2c8,2.1,18.3-5.8,20.2-11.2c0.2-0.1,0.4-0.2,0.6-0.3
          c1.3,1.4,2.6,2.8,3.9,4.2c1-0.2,2.1-0.4,3.1-0.6c0.9-4,1.9-8,2.8-12c4.9-13.4,18.6-30.5,31.6-35.6c2-6.3,1.7-13.9-0.3-19.3
          c4.3,2.6,8.6,5.2,12.9,7.8c8.9,6.8,4.4,16.1-0.8,23.2c-10.3,14-31,19.6-31.4,43.1c8.2,2.2,22.2-6.8,24.1-12
          c0.2-0.1,0.4-0.2,0.6-0.3c1,1.2,2.1,2.4,3.1,3.6c0.4,0,0.7,0,1.1,0c2.3-1.9,3.1-5.6,4.5-8.4c3.4-5.9,6.7-11.8,10.1-17.6
          c3.2-3.6,6.3-7.3,9.5-10.9c1.9-1.5,3.7-3,5.6-4.5c1.1-2.3,2.5-15.6,2-17.9c-3-0.7-7.1-1.8-8.4-4.2c-2.1-4-0.2-11.3,0.6-15.4
          c2-11.2,1.4-23.7,0.8-35.3c8.2,4,13.6-2.2,18.2-5.9c0-0.5,0-0.9,0-1.4c-0.8-0.2-1.7-0.4-2.5-0.6c2.6-3.3,5-7.7,5-13.4
          c-0.5-0.1-0.9-0.2-1.4-0.3c-3.1,2.3-5.7,5.7-9.8,7c-7.7,2.4-23.5-9.6-32.5-11.5c-10.2-2.1-27.8,0.9-38.1,1.4
          c0.6-1.1,1.1-2.2,1.7-3.4c0-0.1,0-0.2,0-0.3c-3.2-0.9-8.5-0.3-11.2,0.6c-0.1,0-0.2,0-0.3,0c0.1-1.3,0.2-2.6,0.3-3.9
          c-5.4-1.5-10.7,1-14.3,2.5c-0.1,0-0.2,0-0.3,0c0.4-2,0.7-3.9,1.1-5.9c-7.5-1.7-11.2,4.7-19.6,2c-0.2-0.3-0.4-0.6-0.6-0.8
          c2.8-0.1,5.6-0.2,8.4-0.3c0.1-0.1,0.2-0.2,0.3-0.3c-0.7-2.7-1.3-5.4-2-8.1c4.4-0.2,7.8-1.4,10.9-2.8c0-0.4,0-0.7,0-1.1
          c-2.1-2.8-3.3-4.6-4.8-8.4c5.6,0,7.5-1.7,10.6-3.9c0-0.4,0-0.7,0-1.1c-3.2-3-6.7-3.1-9-7.3c4.9-3.1,8-2.4,10.6-7.8
          c-0.1-0.7-0.2-1.3-0.3-2c-2.3-0.6-4.7-1.1-7-1.7c0-0.1,0-0.2,0-0.3c1.6-2.4,3.1-4.6,3.6-8.1c19.2,12.2,47.7,44.9,81.5,30.2
          c11.2-4.8,18.6-15.2,28.3-21.8c0-0.4,0-0.7,0-1.1c-14.7-14.2-30.4,15.3-38.1,12.9c-0.7-5.8,7.3-7.8,10.9-10.4
          c5.4-3.7,9.2-8.7,9.2-17.9c-1.9-0.5-3.3,0.2-4.8,0.8C239.8,168.2,248,158.5,257.2,152.1z M174.9,162.2c4.2-3.3,6.3-8.8,10.4-12
          c3.2-2.6,7-3.3,10.9-5.3c0.3,0,0.6,0,0.8,0c-3.3,3-6.5,6-9.8,9c-4.3,7,0.2,15.9,5.9,17.6c0,0.1,0,0.2,0,0.3
          c-1.7,1.6-3.4,3.2-5,4.8c-0.2,0.2-19.3-3.6-23.8-3.6c-0.4-1.9,0-3.7,0.6-5.3C165.5,166.4,173.2,163.5,174.9,162.2z M185.8,180.7
          c0,0.1,0,0.2,0,0.3c-5.3,8.1-19.5,6.5-21-4.2C170.7,178.4,180.2,179.9,185.8,180.7z M145.2,156.6c1.8-3.6,3.5-7.3,5.3-10.9
          c1.5-2.1,4.4-2.9,6.4-4.5c-0.3,0.7-0.6,1.3-0.8,2c-3,4.8-6.7,10.7-5.6,18.5c-3.5,2.6-6.6,4-12.6,3.6c-0.1-0.2-0.2-0.4-0.3-0.6
          C139.7,162.6,143.7,158.8,145.2,156.6z M125.6,142c2.4,2.6,1,9.3,5,12.9c-1.5,0.7-3,1.3-4.5,2C124,152,122.3,146.8,125.6,142z
           M110.8,144.8c1.1,2.3,2.2,4.7,3.4,7c2.7,2.3,5.4,4.7,8.1,7c0.2,0,0.4,0,0.6,0c-2.5,3.4-3.4,2.4-8.1,2
          C112,156.3,108.7,151.9,110.8,144.8z M57.3,185.8c-0.8-0.4-1.7-2.5-1.8-2.6c3,0.8,8.6,1.3,10.4,0.4c0.7,0.1,2.3,0.2,2.6,1.6
          C65.5,188.1,60.8,187.9,57.3,185.8z M78.6,305.2c-12.3,4-24.4-2.7-35-3.1c-0.1,0.2-0.2,0.4-0.3,0.6c1.5,3.1,3,6.2,4.5,9.2
          c4.1,10.6,3.3,20.1,14.6,23.5c-0.9,0.6-1.9,1.1-2.8,1.7c-0.2,0.7-0.4,1.3-0.6,2c8.2,2.2,10.5,3.8,13.7,10.6c0,0.1,0,0.2,0,0.3
          c-23.9,0.1-26.6-20.7-34.7-36.1c-2.4-4.6-11-12.6-5.6-19.6c3.8-5.1,21.9-4.4,28.6-7.6c0.4,0,0.7,0,1.1,0
          c2.4,7.8,9.9,14.5,16.5,18.2C78.6,305.1,78.6,305.2,78.6,305.2z M191.4,336c-3.9,2.8-7.8,5.6-11.8,8.4
          c-9.9,7.8-20.2,21.9-22.4,37c-1.4-1.9-2.8-3.7-4.2-5.6c-0.5,0-0.9,0-1.4,0c-4,7.7-5.9,11.3-14.3,14.6c1.5-4.8,2.1-9.3,4.5-13.2
          c2.8-4.6,8.4-7.8,12.6-11.2c4.3-3.5,7.4-8.6,10.6-13.2c3.5-5,10.8-10.7,8.7-20.7c-1.3-6.4-8.7-8.1-13.2-11.5
          c-4.9-3.7-8.2-10.5-9-18.2c3.9-2,8.1-2.6,12.6-4.5c2.2,0.2,4.5,0.4,6.7,0.6c0.6,1.6,1.1,3.2,1.7,4.8c3.8,6,10.8,12,17.9,14.6
          c-0.1,4,1,4.6,1.7,7.3C192,328.8,191.7,332.4,191.4,336z M144.1,197.2c0,0.1,0,0.2,0,0.3c-2.8,1.2-5.2,2.7-9.2,2.8
          c-1.4,4.9,2,10.3,5.3,11.5c0.1,0.2,0.2,0.4,0.3,0.6c-2.2,0.2-4.5,0.4-6.7,0.6c-2.4,1.8,0.8,8.8,1.7,10.6
          c-0.1,0.2-0.2,0.4-0.3,0.6c-2.5,0.3-5,0.6-7.6,0.8c-0.7,2.7,0.1,5.9,0.3,8.4c-2.6-0.3-5.2-0.6-7.8-0.8
          c-3.9,13.1,12.4,11.7,19.3,8.7c-0.6,2.1-1.1,4.1-1.7,6.2c5.7,1.4,10.4-2.9,15.7-3.6c-0.9,1.8-2,3.2-2.2,5.6
          c3.4,0.7,8-1.7,11.8-2.2c-0.6,1.2-1.1,2-1.1,3.9c13.5-0.6,27.6-3,40.6-1.7c3.2,0.7,6.6,2.1,9.8,2.7c8.1,3.3,17.8,13.1,29.9,7.6
          c-0.9,2.2-5,4.3-7.3,5c-0.2,0.7-0.4,1.3-0.6,2c1.4,0.1,2.8,0.2,4.2,0.3c0,0.1,0,0.2,0,0.3c-8.3,2.8-14.4-4-18.5-9.5
          c-0.5,0-0.9,0-1.4,0c-0.1,0.2-0.2,0.4-0.3,0.6c0.4,3.8,3,5.5,4.2,8.4c1.5,3.6,2.4,7.5,3.1,11.8c2.6,15.7-11.4,48,5.9,51
          c-0.5,16.1-9.7,18.4-16.5,28c-4.6,6.4-6.9,14.9-11.8,21.3c0,0.2,0,0.4,0,0.6c-1.1-1.8-2.2-3.5-3.4-5.3c-0.4,0-0.7,0-1.1,0
          c-0.7,1.9-1.5,3.7-2.2,5.6c-3.2,5.4-9.6,8.7-16.2,10.6c1.6-16.5,21.3-25.1,30-37c2.6-3.5,8.2-9.5,7-16.2
          c-2.9-16.3-27-21.8-37.8-31.4c-6.3-5.5-5.6-15.7-5.6-26.3c-1.2-0.2-2.4-0.4-3.6-0.6c-1.1,3.8-1.4,11-0.3,14.8c0,0.3,0,0.6,0,0.8
          c-13.6-1.5-21,5.3-30,9.2c-8.1,3.5-17.7,6.8-29.1,6.7c0.5-4,0.9-8,1.4-12c-1.2-0.1-2.4-0.2-3.6-0.3c-0.6,3.9-1.1,7.8-1.7,11.8
          c-3,12.8-9,28-6.4,44.8c1.4,9.1,3.6,15.9,4.8,24.1c-2-1.2-3.3-3.2-5.9-3.6c-5.9,6.2-4.7,14.6-17.4,13.7
          c1.8-3.9,3.5-7.8,5.3-11.8c1.8-2.1,3.5-4.1,5.3-6.2c2.2-4.9,1.5-22.5,0.6-28.3c-0.8-5-0.9-9-2.2-13.2c-0.9-2.1-1.9-4.1-2.8-6.2
          c-0.8-3.7,2.1-6.1,1.4-9c-1.2-2.2-2.4-4.5-3.6-6.7c-1.9-4.6-2.9-10.4-3.4-16c-1.2-0.1-2.4-0.2-3.6-0.3c-0.7,2.5,0.1,7,0.8,9.2
          c-14.2-6.2-17-21.4-16.2-41.4c-0.1-0.1-0.2-0.2-0.3-0.3c-2.7,0.3-3.9,1.6-5.6,2.8c-0.1,0-0.2,0-0.3,0c0.9-3.9,1.9-7.8,2.8-11.8
          c-1.4-0.4-3-0.2-4.2,0.3c1.3-3.6,5.3-11.4,5.6-14c-1-0.3-2.1-0.6-3.1-0.8c0-0.1,0-0.2,0-0.3c4.7-3.8,8.8-7.5,13.2-11.5
          c0-0.5,0-0.9,0-1.4c-1.9-0.5-3.7-0.9-5.6-1.4c2.1-1.5,4.1-3,6.2-4.5c5-4.2,7.8-9.4,13.7-12.9c4.6-2.7,11.1-2.8,16.2-5.3
          c0.3-0.1,0.6-0.2,0.8-0.3c0-0.5,0-0.9,0-1.4c-3.7-0.7-7.5-1.3-11.2-2c-2.3-1.4-4.7-2.8-7-4.2c-5.6-1.4-12,3.1-15.7,0
          c-0.2-0.1-0.4-0.2-0.6-0.3c4-1.2,8.8-8.6,3.9-12.3c-2.4-1.8-7.1-2.2-10.9-2.5c0-0.3,0-0.6,0-0.8c4.4-9.1,9.5-4.2,20.4-5.9
          c6.9-1.5,13.8-3,20.7-4.5c7.3-1.2,13.3,2.1,19.3,2.5c2.6-4.2,7.1-7.2,13.4-7.6c-1.1,6.6-6.7,6.9-8.4,10.6
          c-2.2,4.9,5.5,8.8,9.8,9c-2.3,4-4.1,8.5,3.9,8.1c0,0.1,0,0.2,0,0.3c-1.2,2.4-3.2,4.5-5.9,5.3c-0.2,0.7-0.4,1.3-0.6,2
          C137.6,195.1,140.8,196.2,144.1,197.2z M233.4,180.9c-3.6,10.9-16.6,11-20.2,21.6c0,3.9,1.8,5.5,4.5,6.7
          c14.5-0.6,14.9-17,30.8-16.5c-1.9,1.5-3.7,3-5.6,4.5c-13.8,11.1-25.9,23.5-50.7,13.2c-11-4.6-19.5-12.4-28.6-19
          c-3.6-2.6-21.5-13-21.8-16.5c-2.8-0.7-6.6,0-8.7-1.4c-0.5-0.7-0.9-1.3-1.4-2c0.9-0.9,1.9-1.9,2.8-2.8
          c17.3,2.8,21.2-7.1,28.6-16.5c2.6-3.3,6-5,9.2-7.6c1.1,0.7-5,6.8-5.9,8.1c-4.5,6.7-10,22-3.9,31.6c3.4,5.4,15.9,8.3,22.7,3.6
          c7.4-5.1,6.7-15.6,19.9-14.8c-4.2,5.4-18.3,16.8-12.9,27.2c1.3,2.5,3.1,4.6,6.2,5.3c9.3,2.1,13.1-8.8,16.5-13.2
          C219.3,186.7,226.2,183.9,233.4,180.9z M200.9,184.3c4.3,1.1,8.6,1.8,14.3,1.7c-2.8,3.8-10.2,15-15.1,15.7
          C191.7,197.2,196.8,189.7,200.9,184.3z M204.3,180.9c0.9-3,4.9-6.4,7.3-8.1c0-0.4,0-0.7,0-1.1c-1.3-1.4-3.9-2.2-6.2-2.5
          c1.6-1.8,3.2-3.5,4.8-5.3c1.6-3.4,3.2-6.7,4.8-10.1c2.3-3.3,6.3-4.8,9.8-7c1.8,2.1-0.4,7.3-1.4,8.7c-3.7,5.3-12,8.1-9.2,17.4
          c14.2,9.5,17.9-12.2,26-17.6c2.3-1.5,5.8-2,9.2-2.2c-3.4,3.3-6.7,6.5-10.1,9.8C229.7,174.9,225.5,183.4,204.3,180.9z" stroke="#555555" fill="none"></path>
      </g>
    </g>
    <g>
      <g>
        <path class="st2" d="M92.9,167.2c2.8,0.1,4.6,1.4,6.4,2.5c0.3,0.9,0.6,1.9,0.8,2.8c-2.8,0.3-2.7,1.7-5,2.2
          c-1.8-1.4-3.8-1.9-3.9-5C91.7,168.9,92.3,168.1,92.9,167.2z" fill="#1D1D1B"></path>
      </g>
      <g>
        <path class="st3" d="M92.9,167.2c2.8,0.1,4.6,1.4,6.4,2.5c0.3,0.9,0.6,1.9,0.8,2.8c-2.8,0.3-2.7,1.7-5,2.2
          c-1.8-1.4-3.8-1.9-3.9-5C91.7,168.9,92.3,168.1,92.9,167.2z" stroke="#555555" fill="none"></path>
      </g>
    </g>
    <g>
      <g>
        <path class="st3" d="M140.4,180.9c-0.2,0.5-0.4,0.9-0.6,1.4c0.2,0,0.4,0,0.6,0c1,0.2,2.1,0.4,3.1,0.6
          C142.5,182.2,141.5,181.6,140.4,180.9z" stroke="#555555" fill="none"></path>
      </g>
    </g>
  </g>
  <line class="st4" x1="22.3" y1="74.5" x2="263.3" y2="74.5" stroke="#555555" fill="none" stroke-width="5px"></line>
  <line class="st4" x1="22.3" y1="106.5" x2="263.3" y2="106.5" stroke="#555555" fill="none" stroke-width="5px"></line>
  <polygon class="st5" points="9.3,90.4 27.3,79.1 45.3,90.4 27.3,101.6  " stroke="#555555" fill="none" stroke-width="5px"></polygon>
  <polygon class="st5" points="124.3,90.4 142.3,79.1 160.3,90.4 142.3,101.6   " stroke="#555555" fill="none" stroke-width="5px"></polygon>
  <ellipse class="st5" cx="84.8" cy="90.8" rx="15.4" ry="7.7" stroke="#555555" fill="none" stroke-width="5px"></ellipse>
  <ellipse class="st5" cx="199.8" cy="90.8" rx="15.4" ry="7.7" stroke="#555555" fill="none" stroke-width="5px"></ellipse>
  <polygon class="st5" points="239.3,90.4 257.3,79.1 275.3,90.4 257.3,101.6   " stroke="#555555" fill="none" stroke-width="5px"></polygon>
  <g>
  </g>
  <g>
  </g>
  <g>
  </g>
  <g>
  </g>
  <g>
  </g>
  <g>
  </g>
  <g>
  </g>
  <g>
  </g>
  <g>
  </g>
  <g>
  </g>
  <g>
  </g>
  <g>
  </g>
  <g>
  </g>
  <g>
  </g>
  <g>
  </g>
</g>
</svg>